<?xml version="1.0" standalone="no"?>
<!DOCTYPE svg PUBLIC "-//W3C//DTD SVG 20010904//EN"
 "http://www.w3.org/TR/2001/REC-SVG-20010904/DTD/svg10.dtd">
<svg version="1.0" xmlns="http://www.w3.org/2000/svg"
 width="300.000000pt" height="300.000000pt" viewBox="0 0 300.000000 300.000000"
 preserveAspectRatio="xMidYMid meet">
<metadata>
Created by potrace 1.15, written by Peter Selinger 2001-2017
</metadata>
<g transform="translate(0.000000,300.000000) scale(0.100000,-0.100000)"
fill="#000000" stroke="none">
<path d="M902 2983 c-6 -10 -10 -43 -10 -73 0 -99 59 -162 157 -166 70 -3 114
17 151 68 23 31 28 48 28 96 -1 90 -3 92 -113 92 l-95 0 5 -29 c4 -24 2 -29
-13 -27 -9 2 -27 -3 -38 -11 -19 -12 -22 -12 -28 3 -4 9 1 27 9 40 15 23 15
24 -14 24 -19 0 -34 -7 -39 -17z"/>
<path d="M2115 2967 c-45 -11 -59 -23 -69 -55 -4 -12 -12 -22 -17 -22 -5 0 -9
-7 -9 -15 0 -8 4 -15 10 -15 5 0 7 -7 4 -15 -6 -15 17 -45 35 -45 5 0 16 -7
24 -15 16 -15 77 -11 77 6 0 5 6 6 13 4 25 -9 47 20 41 54 -4 17 -10 31 -14
31 -5 0 -6 9 -3 20 3 11 0 20 -6 20 -5 0 -8 7 -5 15 7 17 -13 46 -30 44 -6 -1
-29 -6 -51 -12z"/>
<path d="M1373 2937 c-28 -30 -26 -93 3 -116 13 -10 21 -21 18 -24 -10 -9 35
-19 57 -12 11 4 18 9 15 12 -3 3 5 14 18 24 18 14 23 28 22 58 -1 53 -26 78
-76 78 -27 0 -45 -6 -57 -20z"/>
<path d="M100 2899 c0 -4 -7 -6 -15 -3 -8 4 -15 2 -15 -3 0 -5 -10 -10 -22
-10 -26 -2 -48 -28 -48 -55 0 -22 18 -24 26 -3 4 8 9 13 13 11 3 -2 22 3 41
12 40 20 148 21 195 3 17 -6 33 -11 37 -12 15 0 90 -74 110 -109 12 -19 24
-37 27 -40 17 -15 17 -205 0 -220 -3 -3 -15 -22 -28 -42 -50 -83 -142 -134
-241 -132 -36 1 -79 7 -97 14 -18 6 -35 11 -39 10 -3 -1 -12 7 -19 17 -12 16
-14 17 -20 1 -13 -33 19 -65 58 -59 4 0 7 -4 7 -10 0 -6 7 -9 15 -5 8 3 15 1
15 -3 0 -5 36 -9 80 -9 44 0 80 4 80 9 0 4 7 6 15 3 8 -4 15 -2 15 3 0 5 10
10 22 10 13 1 28 9 34 18 7 9 16 17 20 18 11 3 98 87 90 87 -3 0 3 9 15 21 11
11 18 27 15 35 -3 8 -1 14 5 14 6 0 9 7 5 15 -3 8 -2 15 3 15 4 0 8 36 8 80 0
44 -4 80 -8 80 -5 0 -6 7 -3 15 4 8 1 15 -5 15 -6 0 -8 6 -5 14 3 8 -4 24 -15
35 -12 12 -22 24 -23 28 -5 13 -88 95 -88 87 0 -4 -6 0 -13 10 -7 9 -22 18
-35 19 -12 0 -22 5 -22 10 0 5 -7 7 -15 3 -8 -3 -15 -1 -15 3 0 5 -36 9 -80 9
-44 0 -80 -4 -80 -9z"/>
<path d="M541 2896 c-17 -21 -10 -59 14 -71 47 -24 49 -27 29 -42 -16 -12 -17
-15 -4 -23 18 -12 100 -13 118 -1 10 6 10 10 -2 20 -13 11 -13 16 -2 34 7 12
13 38 12 57 l-1 35 -76 3 c-58 2 -79 -1 -88 -12z"/>
<path d="M2879 2885 c-19 -14 -33 -29 -31 -33 8 -17 46 -51 53 -47 14 9 21
-16 9 -30 -7 -8 -10 -15 -6 -15 3 0 -3 -9 -15 -21 -11 -11 -18 -27 -15 -35 3
-8 1 -14 -5 -14 -6 0 -9 -7 -5 -15 3 -8 2 -15 -3 -15 -4 0 -8 -36 -8 -80 0
-44 4 -80 8 -80 5 0 6 -7 3 -15 -4 -8 -1 -15 5 -15 6 0 8 -6 5 -14 -3 -8 4
-24 15 -35 12 -12 22 -24 24 -28 1 -4 21 -27 45 -51 l42 -44 0 30 c0 16 -9 37
-20 47 -12 10 -30 35 -42 54 -12 20 -24 38 -27 41 -8 7 -12 36 -13 112 -1 54
4 78 26 122 15 31 32 56 37 56 5 0 3 -10 -6 -23 -8 -13 -12 -27 -8 -30 3 -4 1
-7 -5 -7 -18 0 -31 -62 -29 -139 2 -48 7 -76 15 -79 7 -2 10 -8 6 -13 -3 -5 0
-9 6 -9 6 0 9 -4 6 -8 -3 -5 8 -24 24 -43 l29 -34 1 33 c0 29 -22 88 -39 102
-3 3 -6 34 -6 70 0 36 3 67 6 70 23 19 39 76 39 141 0 71 0 72 -20 54 -19 -17
-25 -13 -22 16 1 4 -9 16 -22 28 l-22 21 -35 -25z"/>
<path d="M98 2843 c-10 -2 -18 -9 -18 -14 0 -6 -4 -7 -10 -4 -5 3 -10 1 -10
-5 0 -6 -4 -9 -9 -5 -6 3 -14 -2 -19 -11 -5 -9 -13 -15 -18 -15 -5 1 -10 -44
-12 -100 -1 -70 1 -98 9 -93 6 3 9 15 6 25 -3 11 -2 19 2 19 5 0 12 10 18 22
8 19 10 20 16 5 3 -9 2 -17 -4 -17 -6 0 -7 -4 -4 -10 3 -5 2 -10 -3 -10 -5 0
-9 -22 -9 -50 0 -27 4 -50 9 -50 5 0 6 -4 3 -10 -3 -5 -1 -10 6 -10 7 0 9 -3
6 -7 -9 -9 33 -54 44 -47 5 3 9 0 9 -6 0 -6 5 -8 10 -5 5 3 10 2 10 -3 0 -5
23 -9 50 -9 28 0 50 4 50 9 0 5 5 6 10 3 6 -3 10 -1 10 5 0 6 4 9 9 6 11 -7
53 38 44 47 -3 4 -1 7 6 7 7 0 9 5 6 10 -3 6 -2 10 3 10 5 0 9 23 9 50 0 28
-4 50 -9 50 -5 0 -6 5 -3 10 3 6 1 10 -5 10 -6 0 -9 4 -6 9 7 11 -38 53 -47
44 -4 -3 -7 -1 -7 6 0 7 -4 9 -10 6 -5 -3 -10 -2 -10 3 0 5 -22 9 -50 9 -27 0
-50 -4 -50 -9 0 -5 -4 -6 -10 -3 -5 3 -10 2 -10 -4 0 -6 -7 -8 -16 -4 -42 16
75 47 126 33 19 -5 39 -9 43 -9 7 0 22 -17 74 -86 10 -13 10 -117 0 -130 -50
-66 -66 -86 -69 -84 -2 0 -22 -4 -46 -10 -31 -9 -53 -9 -85 0 -23 6 -43 10
-45 10 -2 -1 -16 15 -33 36 -16 21 -32 43 -37 48 -4 6 -6 17 -4 27 2 9 -2 19
-7 23 -7 4 -11 -12 -11 -45 0 -47 3 -54 45 -96 25 -24 51 -45 58 -46 49 -6
135 -4 155 3 31 12 109 90 121 121 7 20 9 107 3 155 -3 20 -96 111 -125 122
-40 15 -151 8 -182 -13 -15 -10 -29 -16 -31 -13 -9 9 45 37 90 47 55 12 125
-1 167 -31 16 -11 29 -18 29 -14 0 3 6 0 14 -7 8 -7 14 -15 13 -18 -1 -6 34
-73 42 -80 8 -7 8 -133 0 -140 -8 -7 -43 -74 -42 -80 1 -3 -5 -11 -13 -18 -8
-7 -14 -10 -14 -7 0 4 -13 -3 -29 -14 -64 -46 -177 -46 -241 -1 -15 11 -30 17
-34 13 -3 -3 -6 -1 -6 5 0 7 -4 12 -10 12 -20 0 -10 -49 12 -62 13 -7 26 -11
31 -10 4 1 7 -3 7 -9 0 -5 4 -8 9 -5 5 4 11 0 13 -6 6 -18 190 -18 196 0 2 6
8 10 13 6 5 -3 9 0 9 6 0 6 4 8 10 5 13 -8 113 92 105 105 -3 6 -1 10 5 10 6
0 9 4 6 9 -4 5 0 11 6 13 18 6 18 190 0 196 -6 2 -10 8 -6 13 3 5 0 9 -6 9 -6
0 -8 4 -5 10 8 13 -92 113 -105 105 -6 -3 -10 -1 -10 5 0 6 -4 9 -9 6 -5 -4
-11 -1 -13 6 -4 12 -143 20 -180 11z"/>
<path d="M2339 2822 c-13 -14 -23 -29 -21 -34 1 -4 -2 -8 -8 -8 -11 0 -13 -39
-4 -64 3 -9 17 -16 31 -16 17 0 23 4 20 13 -4 10 2 13 18 9 30 -5 37 -22 19
-47 -8 -10 -14 -16 -14 -12 0 16 -57 -23 -70 -48 -12 -23 -12 -28 0 -35 8 -6
12 -10 7 -10 -12 0 22 -60 34 -60 6 0 8 -4 5 -8 -3 -5 3 -15 13 -24 19 -16 61
-8 61 12 0 5 4 9 8 7 13 -4 112 53 112 65 0 6 3 9 6 5 9 -8 64 21 64 34 0 6 4
8 9 5 4 -3 16 3 25 13 14 15 15 24 6 40 -6 12 -15 21 -20 21 -6 0 -9 3 -9 8 3
18 -3 31 -30 61 -29 32 -30 32 -60 16 -17 -8 -31 -21 -31 -27 0 -6 -3 -8 -7
-5 -3 4 -16 1 -28 -7 -21 -14 -23 -13 -33 10 -10 20 -9 24 4 24 8 0 12 5 9 10
-4 6 5 10 19 10 33 0 32 4 -1 38 -38 38 -99 40 -134 4z m246 -133 c9 -16 20
-29 25 -29 6 0 5 -8 -2 -19 -7 -11 -15 -18 -20 -15 -4 3 -16 -4 -27 -15 -11
-11 -22 -17 -25 -13 -3 3 -6 0 -6 -6 0 -7 -4 -11 -8 -9 -12 3 -112 -53 -112
-64 0 -5 -9 -4 -20 3 -10 7 -17 14 -15 17 3 2 -5 20 -17 40 -12 20 -18 33 -13
29 9 -9 65 19 65 32 0 6 4 9 8 8 11 -4 112 51 112 60 0 4 9 8 20 9 13 1 26 -9
35 -28z"/>
<path d="M1680 2809 c0 -6 -4 -8 -9 -5 -11 7 -57 -45 -66 -74 -5 -15 -12 -19
-25 -15 -20 6 -54 -21 -45 -36 4 -5 2 -9 -4 -9 -6 0 -18 -14 -27 -31 -12 -24
-13 -37 -6 -54 8 -18 3 -34 -30 -91 -23 -38 -41 -75 -41 -81 0 -7 -4 -13 -8
-13 -10 0 -6 -51 5 -69 4 -6 3 -11 -3 -11 -6 0 -15 -10 -22 -21 -9 -18 -8 -25
7 -40 11 -10 26 -19 34 -21 8 -2 21 -9 29 -17 13 -12 19 -9 42 19 l28 33 34
-22 c19 -11 37 -18 40 -14 4 3 7 1 7 -5 0 -6 14 -18 30 -27 17 -9 30 -13 30
-10 0 3 9 -4 20 -15 12 -12 25 -18 29 -15 17 10 20 -27 4 -51 -15 -24 -15 -26
3 -44 10 -10 26 -20 34 -22 8 -2 21 -9 28 -16 12 -10 18 -8 38 13 13 15 21 31
18 37 -4 7 -2 8 5 4 21 -13 51 5 78 47 15 23 26 48 26 54 0 7 4 13 8 13 12 0
40 56 32 64 -4 3 5 6 18 6 14 0 32 6 41 13 22 18 59 83 51 90 -3 4 -1 7 5 7 7
0 12 5 12 10 0 6 -7 10 -16 10 -11 0 -14 5 -9 18 3 9 7 21 8 27 1 5 9 15 17
22 10 7 15 29 15 61 0 39 -5 56 -24 76 -13 14 -28 23 -32 20 -5 -3 -9 -1 -9 5
0 6 -13 17 -30 26 -16 9 -30 13 -30 10 0 -3 -9 4 -20 15 -12 12 -25 18 -30 15
-6 -4 -10 -2 -10 3 0 10 -119 78 -132 75 -4 -2 -8 1 -8 7 0 17 -44 34 -92 36
-27 1 -48 -2 -48 -7z m57 -144 c23 -14 43 -23 43 -20 0 3 9 -4 20 -15 11 -11
24 -20 29 -20 6 0 9 -9 8 -20 -1 -11 -5 -20 -9 -20 -11 0 -38 -56 -31 -64 4
-3 1 -6 -5 -6 -6 0 -21 -18 -32 -40 -24 -46 -29 -50 -22 -15 3 17 -1 27 -12
31 -9 3 -14 10 -11 15 7 10 -28 29 -54 29 -12 0 -21 -5 -21 -11 0 -5 -5 -7
-10 -4 -6 3 -13 -1 -16 -10 -6 -14 -8 -14 -19 2 -8 11 -10 24 -4 34 4 9 5 19
2 23 -3 3 -1 6 4 6 6 0 28 29 48 65 20 36 39 65 42 65 3 0 26 -11 50 -25z
m206 -151 c-2 -41 18 -104 33 -104 7 0 12 -9 11 -20 -1 -11 -5 -20 -9 -20 -4
0 -14 -13 -23 -30 -9 -16 -13 -30 -10 -30 4 0 4 -4 0 -10 -3 -5 -15 0 -26 11
-11 11 -24 17 -29 14 -6 -4 -10 -2 -10 2 0 5 -13 17 -30 26 -16 10 -30 16 -30
13 0 -3 -9 3 -21 15 l-20 20 21 35 c12 18 19 34 15 34 -3 0 3 10 15 22 11 12
20 25 20 30 0 4 0 10 0 13 0 3 8 13 18 24 16 17 19 17 47 2 24 -14 30 -23 28
-47z"/>
<path d="M730 2661 c-8 -8 -14 -19 -12 -23 1 -5 -2 -8 -8 -8 -12 0 -41 -55
-33 -64 4 -3 1 -6 -5 -6 -12 0 -69 -99 -65 -112 2 -4 -1 -8 -7 -8 -5 0 -14 -9
-20 -21 -9 -16 -8 -25 6 -40 9 -10 21 -16 25 -13 5 3 9 1 9 -5 0 -13 55 -42
64 -34 3 4 6 1 6 -5 0 -12 99 -69 112 -64 4 1 8 -3 8 -8 0 -20 42 -28 61 -12
10 9 16 19 13 24 -3 4 -1 8 5 8 13 0 42 55 34 64 -4 3 -1 6 5 6 12 0 69 99 65
112 -2 4 1 8 7 8 5 0 14 9 20 21 9 16 8 25 -6 40 -9 10 -21 16 -25 13 -5 -3
-9 -1 -9 5 0 13 -55 42 -64 34 -3 -4 -6 -1 -6 5 0 11 -95 67 -104 61 -3 -2
-11 3 -18 12 -20 24 -41 28 -58 10z m101 -84 c26 -14 49 -23 53 -20 3 3 6 2 6
-4 0 -14 -25 -35 -33 -27 -3 3 -16 -5 -28 -17 -13 -13 -18 -24 -12 -26 6 -2 9
-13 6 -23 -3 -11 -1 -20 5 -20 18 0 1 -38 -19 -43 -16 -4 -18 -12 -14 -46 6
-46 2 -49 -39 -22 -17 11 -33 18 -38 15 -4 -3 -8 -1 -8 3 0 10 -55 44 -61 38
-3 -2 -10 5 -17 15 -7 11 -8 20 -3 20 11 0 103 161 99 172 -2 4 6 14 17 22 15
11 22 11 30 2 5 -7 31 -25 56 -39z"/>
<path d="M1130 2590 c-10 -10 -17 -29 -16 -44 2 -14 -3 -27 -11 -30 -20 -8
-13 -66 10 -80 37 -23 77 43 47 79 -12 15 2 55 20 55 18 0 32 -40 20 -55 -30
-36 10 -102 48 -79 22 14 29 72 9 80 -8 3 -13 16 -12 29 4 36 -17 58 -59 60
-26 2 -44 -3 -56 -15z"/>
<path d="M2630 2405 c-4 -5 -10 -17 -12 -25 -2 -8 -7 -18 -12 -21 -14 -11 -19
-101 -8 -141 9 -33 8 -39 -19 -64 -29 -27 -38 -54 -19 -54 5 0 7 -6 4 -13 -11
-29 21 -39 81 -26 30 7 55 16 55 21 0 5 5 6 10 3 6 -3 15 -3 22 1 7 4 24 9 39
11 15 1 39 8 55 14 16 7 34 11 40 10 21 -3 36 27 29 59 -7 31 -37 56 -55 45
-6 -3 -10 -2 -10 4 0 5 -9 12 -19 16 -12 4 -18 12 -14 21 3 7 0 14 -6 14 -6 0
-8 7 -5 15 3 8 -6 25 -20 40 -14 14 -22 25 -19 25 3 0 0 7 -7 15 -7 8 -16 13
-20 10 -4 -3 -11 2 -14 11 -3 8 -10 12 -16 9 -5 -3 -10 -2 -10 4 0 13 -38 10
-50 -4z"/>
<path d="M2277 2291 c-8 -9 -13 -32 -13 -51 1 -19 -5 -41 -12 -49 -11 -12 -11
-15 0 -22 7 -5 21 -9 31 -9 9 0 17 -7 17 -15 0 -8 9 -15 20 -15 11 0 20 7 20
15 0 8 8 15 18 15 9 0 23 4 30 9 11 7 11 10 0 22 -7 8 -13 31 -12 51 1 23 -5
43 -14 50 -22 18 -69 18 -85 -1z"/>
<path d="M475 2174 c-30 -29 -36 -41 -33 -66 4 -26 -3 -37 -57 -89 -66 -63
-78 -98 -45 -130 33 -31 66 -19 129 46 51 53 64 61 89 57 22 -3 36 4 65 32 30
29 37 43 37 75 0 52 -24 58 -67 18 -21 -20 -37 -27 -49 -23 -15 6 -13 11 14
39 18 18 32 43 32 55 0 19 -5 22 -39 22 -32 0 -47 -7 -76 -36z"/>
<path d="M1047 2203 c-3 -5 -5 -42 -5 -83 l0 -75 86 -87 c48 -49 94 -88 102
-88 20 0 150 130 150 150 0 8 -39 54 -87 102 l-88 88 -77 0 c-42 0 -79 -3 -81
-7z m212 -108 l76 -74 -52 -53 -53 -53 -75 75 c-74 74 -75 75 -75 127 l0 53
51 0 c51 0 53 -1 128 -75z"/>
<path d="M26 2091 c-56 -58 -15 -150 66 -147 118 4 117 168 -2 172 -30 1 -44
-4 -64 -25z"/>
<path d="M2103 2033 c-13 -2 -23 -9 -23 -14 0 -6 -4 -7 -10 -4 -5 3 -15 3 -22
-1 -7 -4 -25 -9 -42 -11 -16 -2 -35 -8 -43 -14 -14 -13 -18 -59 -4 -59 5 0 8
-6 8 -12 -3 -25 15 -98 23 -98 4 0 6 -9 3 -20 -3 -12 0 -20 6 -20 7 0 10 -4 7
-8 -7 -12 13 -83 28 -96 17 -16 36 -18 50 -6 7 5 16 7 19 4 3 -3 11 -2 18 2 7
4 27 9 44 11 16 2 32 8 33 13 2 6 8 8 13 4 5 -3 14 -2 21 2 7 4 25 9 41 11 46
5 82 26 85 51 2 12 -2 22 -8 22 -6 0 -9 4 -5 9 7 12 -16 101 -26 101 -4 0 -5
9 -2 20 3 11 1 20 -3 20 -5 0 -10 12 -11 26 0 15 -7 31 -15 36 -14 9 -80 1
-88 -12 -3 -5 -14 -2 -24 6 -11 8 -16 14 -12 14 4 0 1 7 -8 15 -8 8 -18 14
-23 14 -4 -1 -18 -4 -30 -6z m32 -56 c1 -33 18 -97 25 -97 4 0 6 -9 3 -20 -3
-11 -1 -20 3 -20 5 0 10 -14 11 -32 1 -17 6 -34 11 -37 5 -3 6 -15 2 -26 -6
-18 -9 -17 -24 13 -16 32 -39 41 -51 22 -4 -6 -11 -8 -16 -5 -5 4 -10 1 -10
-4 -1 -6 -3 -15 -4 -21 -1 -5 -3 -19 -4 -30 -1 -12 -6 -17 -15 -14 -8 3 -12
13 -9 25 3 11 0 19 -6 19 -7 0 -10 4 -6 9 7 12 -16 101 -26 101 -4 0 -5 9 -2
20 3 11 1 20 -4 20 -5 0 -9 12 -8 28 0 20 6 28 23 30 12 2 22 7 22 12 0 5 6 7
14 4 8 -3 17 -1 20 5 4 6 13 8 21 4 8 -3 15 1 15 8 0 15 15 2 15 -14z"/>
<path d="M828 1930 c-57 -57 -21 -141 62 -146 84 -4 129 81 77 142 -35 41
-100 42 -139 4z"/>
<path d="M1730 1949 c0 -5 -4 -7 -10 -4 -5 3 -15 3 -22 -1 -7 -4 -24 -9 -39
-11 -15 -1 -39 -8 -55 -14 -16 -7 -33 -11 -38 -10 -4 1 -14 -3 -20 -9 -7 -5
-16 -7 -19 -4 -4 4 -18 -1 -32 -10 -20 -13 -24 -22 -19 -44 4 -15 10 -28 14
-30 5 -2 6 -12 3 -22 -3 -11 -1 -20 3 -20 5 0 10 -15 11 -32 2 -18 7 -34 12
-36 5 -2 7 -12 4 -22 -3 -11 -1 -20 3 -20 5 0 9 -14 10 -30 1 -17 9 -39 19
-50 18 -20 55 -27 69 -13 4 4 13 8 19 8 34 1 97 18 97 26 0 4 6 6 14 3 8 -3
17 -1 20 5 4 6 12 8 19 5 24 -9 56 29 50 59 -3 15 -9 27 -13 27 -5 0 -6 9 -3
20 3 11 1 20 -3 20 -5 0 -10 15 -11 32 -2 18 -7 34 -12 36 -5 2 -7 12 -4 22 3
12 0 20 -6 20 -7 0 -9 5 -6 10 10 16 -13 74 -35 88 -13 8 -20 8 -20 1z m-4
-56 c10 -10 19 -22 19 -28 1 -31 18 -95 25 -95 4 0 6 -9 3 -20 -3 -13 0 -20 8
-20 15 -1 -19 -24 -36 -25 -32 -2 -95 -18 -95 -23 0 -4 -11 -8 -24 -8 -18 -1
-22 2 -19 17 3 11 0 19 -6 19 -7 0 -10 4 -7 8 6 10 -15 95 -25 102 -12 8 14
55 31 55 36 1 100 18 100 26 0 13 4 11 26 -8z"/>
<path d="M2805 1941 c-4 -3 -12 -6 -18 -6 -36 -2 -97 -18 -97 -26 0 -6 -4 -7
-10 -4 -5 3 -15 3 -22 -1 -7 -4 -25 -9 -41 -11 -16 -2 -35 -9 -43 -17 -15 -16
-19 -66 -5 -66 5 0 8 -6 8 -12 -2 -22 14 -98 21 -98 4 0 8 -14 8 -32 2 -43 28
-61 79 -53 22 3 42 9 45 13 10 14 35 7 45 -13 11 -21 75 -35 75 -16 0 6 6 8
14 5 8 -3 17 -1 20 5 4 6 13 8 21 4 8 -3 15 0 15 7 0 6 4 9 9 6 5 -3 13 0 19
7 12 15 14 77 2 77 -4 0 -7 6 -7 13 3 26 -15 97 -24 97 -6 0 -7 5 -4 10 9 14
-14 80 -34 101 -15 16 -64 23 -76 10z m51 -46 c6 -5 9 -17 6 -27 -2 -10 0 -18
6 -18 5 0 9 -6 9 -12 -3 -30 16 -98 26 -98 7 0 1 -9 -13 -19 -13 -11 -28 -17
-32 -15 -4 3 -13 2 -20 -2 -7 -4 -26 -9 -43 -11 -16 -2 -32 -8 -33 -13 -2 -6
-8 -8 -13 -4 -5 3 -15 2 -21 -2 -29 -18 -86 -12 -85 9 3 24 -15 97 -23 97 -4
0 -6 9 -3 20 3 12 0 20 -7 20 -10 0 -10 3 0 15 7 8 21 15 31 15 11 0 19 5 19
11 0 5 5 7 10 4 6 -3 16 -3 23 2 6 4 17 8 22 8 33 2 95 18 95 25 0 11 32 7 46
-5z"/>
<path d="M2807 1874 c-3 -3 -11 -7 -19 -8 -63 -15 -77 -19 -73 -26 3 -5 -4 -6
-15 -3 -16 4 -20 0 -20 -21 0 -14 5 -26 12 -26 13 0 2 -14 -13 -16 -5 -1 -14
-2 -19 -3 -13 -1 -1 -53 14 -63 6 -4 7 -8 2 -8 -6 0 -5 -5 2 -12 9 -9 15 -9
23 -1 6 6 18 9 25 6 8 -3 14 0 14 7 0 7 8 9 20 5 14 -5 20 -2 20 9 0 9 5 16
10 16 6 0 10 -4 10 -10 0 -5 5 -10 10 -10 6 0 10 7 10 16 0 14 3 14 15 4 24
-20 38 1 30 44 -4 20 -11 36 -15 36 -5 0 -6 9 -3 20 3 12 0 20 -6 20 -7 0 -10
4 -7 9 6 10 -19 23 -27 15z"/>
<path d="M650 1809 c0 -5 -4 -7 -10 -4 -5 3 -16 3 -22 -2 -7 -4 -17 -8 -23 -8
-37 -2 -95 -18 -95 -26 0 -6 -4 -7 -10 -4 -5 3 -15 3 -22 -1 -7 -4 -24 -9 -39
-11 -15 -1 -39 -8 -55 -14 -16 -7 -33 -13 -39 -14 -5 -1 -12 -3 -15 -4 -3 -1
-21 -4 -40 -7 -19 -2 -37 -9 -38 -14 -2 -6 -8 -8 -13 -4 -5 3 -14 2 -21 -2 -7
-4 -24 -9 -39 -11 -47 -5 -79 -22 -92 -50 -9 -21 -9 -27 1 -31 7 -2 10 -8 7
-12 -7 -11 17 -100 26 -100 4 0 5 -9 2 -20 -3 -11 -1 -20 5 -20 5 0 9 -6 9
-12 -3 -25 15 -98 23 -98 4 0 6 -9 3 -20 -3 -11 -1 -20 5 -20 5 0 9 -6 9 -12
-3 -25 15 -98 23 -98 4 0 6 -9 3 -20 -3 -11 -1 -20 3 -20 5 0 10 -14 11 -32 1
-17 6 -34 10 -37 5 -3 8 -13 8 -21 0 -20 56 -50 62 -32 3 6 9 10 14 6 5 -3 15
-2 22 3 6 4 17 8 22 8 37 2 95 18 95 26 0 6 5 7 10 4 6 -3 15 -3 22 1 7 4 24
9 39 11 15 1 39 8 55 14 16 7 34 13 39 14 6 1 12 3 15 4 3 1 21 4 40 7 19 2
37 9 38 14 2 6 8 8 13 4 5 -3 14 -2 21 2 7 4 24 9 39 11 47 5 79 22 92 50 9
21 9 27 -1 31 -7 2 -10 8 -7 12 7 11 -17 100 -26 100 -4 0 -5 9 -2 20 3 11 1
20 -5 20 -5 0 -9 6 -9 13 3 24 -15 97 -23 97 -4 0 -6 9 -3 20 3 11 1 20 -5 20
-5 0 -9 6 -9 13 3 24 -15 97 -23 97 -4 0 -6 9 -3 20 3 11 1 20 -3 20 -5 0 -10
15 -11 32 -2 18 -7 34 -12 36 -6 2 -8 9 -5 17 3 7 -5 20 -18 29 -26 18 -48 21
-48 5z m5 -129 c4 -22 10 -40 15 -40 4 0 6 -9 3 -20 -3 -11 -1 -20 5 -20 5 0
9 -6 9 -12 -3 -25 15 -98 23 -98 4 0 6 -9 3 -20 -3 -11 -1 -20 3 -20 5 0 10
-11 10 -25 2 -20 -4 -26 -35 -35 -20 -5 -42 -10 -48 -10 -7 0 -13 -4 -13 -10
0 -5 -6 -9 -12 -7 -7 1 -14 -8 -16 -20 -2 -13 2 -23 8 -23 7 0 6 -5 -2 -14 -7
-8 -16 -12 -20 -9 -5 2 -13 1 -20 -3 -7 -4 -26 -9 -43 -11 -16 -2 -32 -8 -33
-13 -2 -6 -8 -8 -13 -4 -5 3 -14 2 -21 -2 -7 -4 -22 -9 -35 -10 -17 -2 -23 2
-23 17 0 10 -3 19 -7 20 -5 0 -17 2 -27 4 -11 2 -24 1 -30 -2 -6 -4 -24 -8
-40 -10 -17 -2 -33 -8 -37 -14 -3 -6 -10 10 -13 35 -4 25 -11 46 -16 46 -4 0
-6 9 -3 20 3 11 1 20 -3 20 -5 0 -10 15 -11 32 -2 18 -7 34 -12 36 -5 2 -7 12
-4 22 3 11 1 20 -3 20 -5 0 -10 12 -11 28 -2 15 -4 38 -5 51 -3 20 2 24 32 27
19 3 36 9 38 14 2 5 9 7 17 4 7 -3 16 0 20 5 3 6 11 9 16 6 5 -4 14 -3 21 1 7
4 26 9 43 11 16 2 32 8 33 13 2 6 8 8 13 4 5 -3 15 -2 22 3 6 4 17 8 22 8 35
2 95 18 95 26 0 4 6 6 14 3 8 -3 16 -2 19 3 3 4 19 9 35 10 28 2 31 -1 37 -37z
m145 -370 c5 0 6 -9 3 -20 -3 -11 0 -20 6 -20 5 0 8 -6 5 -14 -3 -8 -1 -17 5
-21 19 -11 12 -21 -16 -23 -16 -1 -29 -6 -31 -12 -2 -5 -9 -7 -17 -4 -7 3 -16
0 -20 -5 -3 -6 -11 -9 -16 -6 -5 4 -14 3 -21 -1 -7 -4 -26 -9 -43 -11 -16 -2
-32 -8 -33 -13 -2 -6 -8 -8 -13 -4 -5 3 -15 2 -21 -3 -7 -4 -17 -8 -23 -8 -37
-2 -95 -18 -95 -26 0 -6 -4 -7 -10 -4 -5 3 -16 3 -22 -2 -7 -4 -17 -8 -23 -8
-37 -2 -95 -18 -95 -26 0 -6 -4 -7 -10 -4 -5 3 -18 2 -28 -4 -15 -8 -18 -5
-20 17 -1 15 -6 28 -11 30 -5 2 -7 12 -4 22 3 11 1 20 -3 20 -5 0 -10 13 -11
30 -2 26 2 30 32 36 19 3 35 10 35 15 0 5 6 6 14 3 8 -3 17 -1 20 5 10 15 36
2 29 -15 -3 -8 6 -18 23 -26 21 -10 28 -10 31 -1 3 7 10 10 18 7 7 -3 16 0 20
5 3 6 11 9 16 6 5 -4 14 -3 21 1 7 4 26 9 43 11 16 2 31 8 33 13 2 5 9 7 17 4
7 -3 16 0 20 5 3 6 11 9 16 6 13 -9 37 18 41 46 2 19 11 26 46 33 23 5 42 13
42 18 0 5 5 6 10 3 6 -3 11 2 11 12 1 10 6 -1 12 -24 5 -24 13 -43 17 -43z"/>
<path d="M543 1643 c-13 -2 -23 -8 -23 -13 0 -5 -6 -7 -14 -4 -8 3 -17 0 -21
-5 -3 -6 -11 -9 -16 -6 -5 4 -14 3 -21 -1 -7 -4 -26 -9 -43 -11 -16 -2 -32 -8
-33 -13 -2 -6 -8 -8 -13 -4 -5 3 -14 2 -21 -2 -7 -4 -26 -9 -42 -11 -30 -3
-49 -20 -42 -38 4 -13 80 -8 84 5 2 6 8 8 13 4 5 -3 14 -2 21 2 7 4 26 9 43
11 16 2 31 8 33 13 2 5 9 7 17 4 7 -3 16 0 20 5 3 6 11 9 16 6 5 -4 14 -3 21
1 7 4 22 9 35 10 12 1 30 7 38 12 16 8 15 10 0 25 -9 10 -19 16 -23 16 -4 -1
-17 -4 -29 -6z"/>
<path d="M567 1583 c-4 -3 -22 -8 -39 -10 -18 -2 -35 -8 -36 -13 -2 -6 -8 -8
-13 -4 -5 3 -15 2 -21 -3 -7 -4 -17 -8 -23 -8 -35 -2 -95 -18 -95 -26 0 -4 -6
-6 -14 -3 -8 3 -17 0 -21 -5 -3 -6 -11 -9 -16 -6 -9 6 -45 -22 -38 -30 12 -11
59 -16 59 -5 0 6 5 8 10 5 6 -3 15 -3 22 1 7 4 24 9 39 11 15 1 39 8 55 14 16
7 34 13 39 14 6 1 12 3 15 4 3 1 21 4 40 7 19 2 36 9 38 14 2 5 9 7 15 5 14
-5 53 22 45 30 -9 9 -54 15 -61 8z"/>
<path d="M610 1529 c0 -5 -4 -7 -10 -4 -5 3 -16 3 -22 -2 -7 -4 -17 -8 -23 -8
-37 -2 -95 -18 -95 -26 0 -6 -4 -7 -10 -4 -5 3 -16 3 -22 -2 -7 -4 -17 -8 -23
-8 -36 -2 -95 -18 -95 -26 0 -5 -3 -8 -7 -8 -21 3 -33 -3 -33 -16 0 -19 24
-30 42 -19 7 5 18 9 23 9 37 2 95 18 95 26 0 6 5 7 10 4 6 -3 15 -3 22 1 7 4
24 9 39 11 15 1 39 8 55 14 16 7 37 13 47 14 22 2 37 23 30 42 -6 16 -23 18
-23 2z"/>
<path d="M603 1473 c-13 -2 -23 -9 -23 -14 0 -6 -4 -7 -10 -4 -5 3 -16 3 -22
-2 -7 -4 -17 -8 -23 -8 -37 -2 -95 -18 -95 -26 0 -6 -4 -7 -10 -4 -5 3 -15 3
-22 -1 -7 -4 -26 -9 -42 -11 -17 -2 -33 -8 -37 -14 -3 -6 -10 -10 -15 -9 -12
2 -15 -13 -6 -27 8 -13 102 4 102 19 0 5 5 6 10 3 6 -3 16 -3 23 2 6 4 17 8
22 8 35 2 95 18 95 26 0 4 6 6 14 3 8 -3 17 0 21 5 3 6 10 9 15 6 14 -9 60 13
60 29 0 11 -26 30 -33 25 -1 -1 -12 -4 -24 -6z"/>
<path d="M1309 1703 c-1 -4 -1 -11 -1 -14 1 -4 -8 -5 -19 -2 -26 7 -43 -16
-27 -35 9 -10 8 -12 -3 -10 -8 2 -14 -4 -14 -12 0 -8 6 -14 14 -12 11 2 12 0
3 -10 -16 -19 1 -42 27 -35 12 3 19 0 18 -7 -1 -6 5 -11 13 -11 8 0 14 5 13
11 -1 7 6 10 18 7 26 -7 42 16 26 36 -7 8 -7 12 -2 9 6 -4 17 -2 25 3 13 8 13
10 0 18 -8 5 -19 7 -25 3 -5 -3 -5 1 2 9 16 20 0 43 -26 36 -11 -3 -19 0 -18
5 1 6 -4 13 -10 15 -7 3 -14 1 -14 -4z"/>
<path d="M942 1632 c-37 -33 -44 -84 -14 -101 9 -6 14 -11 9 -11 -11 0 22 -60
33 -60 6 0 9 -3 9 -7 -3 -18 2 -30 19 -49 10 -10 18 -23 19 -27 2 -19 55 -107
65 -107 6 0 9 -3 5 -6 -9 -9 21 -64 35 -64 6 0 8 -3 5 -7 -4 -3 -1 -16 7 -28
8 -12 12 -40 11 -68 -2 -26 1 -47 6 -47 6 0 8 -4 4 -10 -7 -12 64 -92 76 -84
5 3 9 0 9 -6 0 -6 5 -8 10 -5 5 3 10 2 10 -3 0 -12 56 -33 64 -25 3 4 6 0 6
-7 0 -7 3 -10 7 -7 3 4 13 -2 20 -13 12 -16 18 -18 34 -9 18 9 20 19 18 67 -1
31 1 65 6 75 11 26 -4 106 -25 127 -10 10 -16 20 -14 23 9 9 -49 48 -63 43 -7
-3 -13 -2 -13 3 0 4 -11 20 -25 35 -13 14 -22 26 -19 26 2 0 -2 14 -11 30 -9
17 -20 30 -25 30 -6 0 -9 4 -7 8 4 13 -53 112 -65 112 -6 0 -9 3 -5 6 8 9 -21
64 -34 64 -6 0 -8 4 -5 8 7 12 -58 107 -72 105 -7 -2 -12 2 -12 7 0 20 -47 9
-78 -18z m173 -184 c10 -13 18 -24 16 -26 -7 -7 51 -102 61 -102 6 0 9 -3 5
-6 -8 -8 20 -64 32 -64 14 0 7 -25 -10 -41 -22 -21 -37 -21 -59 1 -11 11 -18
20 -15 20 3 0 -1 14 -10 30 -9 17 -20 30 -25 30 -6 0 -9 4 -8 8 4 11 -51 112
-60 112 -18 0 -9 39 11 48 32 16 41 14 62 -10z m146 -314 c19 -3 39 -6 46 -6
7 -1 10 -5 7 -10 -5 -7 10 -12 29 -9 25 4 46 -74 25 -95 -5 -4 -8 -22 -8 -41
0 -30 -2 -33 -19 -24 -10 6 -21 7 -25 4 -3 -3 -6 -2 -6 3 0 6 -18 18 -40 28
-47 21 -70 51 -80 106 -5 29 -4 40 7 44 8 4 11 11 7 18 -6 10 -4 10 8 0 9 -7
31 -15 49 -18z"/>
<path d="M2403 1603 c-13 -2 -23 -9 -23 -14 0 -5 -6 -8 -12 -6 -8 1 -13 -13
-15 -40 -2 -24 1 -43 5 -43 4 0 8 -14 9 -32 4 -47 23 -61 72 -53 23 4 41 11
41 16 0 5 3 8 8 8 22 -4 32 3 32 21 0 11 -4 20 -9 20 -5 0 -7 9 -4 20 3 11 0
20 -6 20 -5 0 -8 7 -5 15 3 8 -1 21 -9 30 -8 8 -17 19 -19 23 -4 13 -38 20
-65 15z"/>
<path d="M1820 1325 c-118 -118 -210 -215 -205 -215 6 0 3 -5 -5 -10 -13 -9
-13 -11 0 -20 8 -5 11 -10 5 -10 -5 0 87 -97 205 -215 138 -138 222 -215 235
-215 13 0 97 77 235 215 118 118 210 215 205 215 -6 0 -3 5 5 10 13 9 13 11 0
20 -8 5 -11 10 -5 10 5 0 -87 97 -205 215 -138 138 -222 215 -235 215 -13 0
-97 -77 -235 -215z m268 142 l22 -23 -135 -134 c-89 -87 -135 -141 -135 -154
0 -13 -24 -46 -60 -81 l-60 -60 -37 38 -38 37 200 200 c110 110 205 200 211
200 6 0 20 -10 32 -23z m118 -118 c4 -7 -52 -70 -132 -150 -122 -122 -137
-141 -127 -158 10 -16 3 -26 -51 -80 l-62 -61 -37 38 c-20 21 -37 42 -37 48 0
5 24 33 53 62 43 42 59 52 79 48 21 -3 45 16 159 130 74 74 137 134 141 134 4
0 10 -5 14 -11z m68 -67 c3 -5 -53 -66 -124 -137 -107 -107 -131 -126 -143
-116 -9 6 -14 19 -13 27 1 8 56 69 121 134 98 98 122 117 136 109 10 -5 20
-13 23 -17z m54 -58 c-2 -1 -66 -66 -142 -143 -126 -128 -138 -142 -125 -158
13 -16 8 -24 -48 -79 l-62 -60 -43 43 -42 43 61 62 c53 53 64 60 78 48 14 -11
34 5 157 128 110 109 145 138 155 130 8 -6 12 -12 11 -14z m89 -81 c-4 -3 2
-12 13 -20 11 -8 20 -22 20 -31 0 -18 -378 -402 -395 -402 -6 0 -25 15 -43 33
l-32 33 63 62 c44 44 66 59 73 52 8 -8 54 32 154 135 79 80 146 145 148 145 3
0 2 -3 -1 -7z"/>
<path d="M1453 1453 c-9 -3 -13 -26 -13 -64 0 -58 1 -60 31 -66 22 -4 27 -8
17 -14 -11 -7 -10 -11 2 -19 32 -21 111 -6 96 18 -3 5 5 13 19 16 23 6 25 11
25 65 0 44 -4 60 -16 65 -18 7 -143 7 -161 -1z"/>
<path d="M2686 1405 c-9 -14 -14 -30 -11 -35 3 -6 1 -10 -6 -10 -6 0 -9 -8 -6
-20 3 -11 2 -20 -2 -20 -4 0 -12 -19 -18 -42 -11 -44 -12 -100 -2 -96 3 2 13
-3 22 -10 9 -8 20 -11 26 -8 5 3 11 2 13 -4 1 -5 17 -11 33 -13 17 -2 36 -7
43 -11 7 -4 17 -4 22 -1 6 3 10 1 10 -6 0 -6 8 -9 19 -6 14 3 18 1 14 -9 -3
-8 0 -15 6 -15 15 -2 23 -4 44 -13 21 -10 50 11 43 31 -3 7 -1 13 4 13 6 0 10
9 10 20 0 10 9 28 20 38 22 20 25 82 5 82 -6 0 -6 3 1 8 18 11 27 71 14 87 -7
8 -16 12 -21 9 -5 -3 -9 -1 -9 5 0 6 -23 8 -55 7 -30 -2 -58 1 -61 6 -3 5 -12
7 -20 4 -8 -3 -14 -2 -14 3 0 5 -13 11 -29 14 -16 3 -40 9 -53 12 -19 5 -29 1
-42 -20z m80 -38 c16 -2 35 -7 42 -11 7 -4 17 -4 22 -1 6 3 10 1 10 -4 0 -6 9
-11 20 -11 20 0 45 -40 30 -50 -9 -6 -30 -92 -25 -100 3 -4 -7 -12 -20 -18
-17 -8 -26 -8 -31 -1 -3 6 -12 8 -19 5 -8 -3 -15 -1 -17 4 -2 5 -18 11 -36 13
-41 5 -81 35 -62 47 7 4 10 15 7 24 -4 9 -3 16 2 16 4 0 14 25 21 55 7 31 16
51 20 45 3 -5 19 -11 36 -13z"/>
<path d="M754 1045 c-12 -8 -24 -12 -27 -9 -3 3 -19 -9 -36 -27 -17 -17 -31
-29 -31 -25 0 4 -15 -2 -34 -13 -25 -16 -35 -18 -39 -9 -2 8 -13 -2 -25 -22
-12 -19 -22 -31 -22 -26 0 5 -7 3 -15 -4 -20 -16 -19 -36 3 -58 9 -10 18 -23
19 -28 3 -18 86 -159 104 -176 9 -9 26 -16 36 -13 29 5 113 56 113 68 0 5 3 8
6 4 8 -8 64 20 64 32 0 4 6 8 13 8 7 0 25 8 40 17 19 13 26 25 23 41 -6 32
-66 135 -79 135 -6 0 -8 3 -4 6 9 9 -21 64 -35 64 -6 0 -8 3 -5 7 9 8 -22 43
-37 43 -6 0 -21 -7 -32 -15z m76 -115 c11 -11 18 -20 15 -20 -3 0 8 -24 25
-53 31 -56 37 -72 20 -62 -5 3 -18 -3 -30 -15 -11 -11 -20 -18 -20 -15 0 3
-13 -1 -30 -10 -16 -9 -30 -21 -30 -27 0 -6 -3 -8 -6 -5 -4 3 -26 -5 -50 -19
l-43 -25 -31 55 c-18 31 -35 56 -39 56 -13 0 -9 34 5 55 8 11 14 16 14 12 0
-4 14 -1 30 8 17 9 30 21 30 27 0 6 3 9 6 5 4 -3 29 7 58 23 28 17 52 30 54
30 1 0 11 -9 22 -20z"/>
<path d="M196 909 c-15 -14 -33 -19 -76 -19 -66 0 -96 -22 -88 -65 3 -14 1
-25 -5 -25 -5 0 -7 -13 -5 -30 3 -16 0 -30 -5 -30 -5 0 -7 -13 -5 -30 3 -16 1
-30 -4 -30 -11 0 -10 -58 2 -81 11 -20 45 -26 55 -9 3 5 12 7 20 3 8 -3 23 -2
32 2 10 5 28 7 40 6 11 -1 24 2 27 7 3 6 15 8 26 5 11 -3 26 0 33 6 8 6 17 7
21 3 15 -15 36 33 36 83 0 39 5 56 20 70 11 10 20 23 20 30 0 10 -113 126
-122 124 -1 0 -12 -9 -22 -20z m16 -116 c37 -39 47 -56 50 -89 2 -29 0 -40 -8
-37 -7 2 -15 0 -18 -6 -4 -6 -13 -8 -21 -4 -8 3 -23 2 -32 -2 -10 -5 -28 -7
-40 -6 -11 1 -24 -3 -28 -9 -3 -5 -11 -8 -17 -4 -13 8 41 64 63 64 36 0 49 63
17 84 -23 14 -53 -3 -52 -30 0 -11 -20 -37 -45 -59 -25 -22 -40 -32 -33 -23 8
9 12 25 11 35 -1 10 1 26 6 36 4 9 5 24 2 32 -4 8 -2 17 3 20 6 4 10 15 10 26
0 16 7 19 43 19 38 0 48 -5 89 -47z"/>
<path d="M2549 893 c-16 -14 -27 -28 -25 -31 3 -3 -7 -16 -22 -30 -15 -14 -26
-30 -24 -34 1 -4 -2 -8 -8 -8 -5 0 -12 -17 -16 -37 -6 -31 -3 -39 16 -55 12
-10 17 -18 10 -18 -6 0 -10 -8 -8 -17 2 -10 6 -16 9 -13 3 3 12 0 20 -7 18
-15 56 -6 63 14 5 12 9 13 21 3 8 -6 19 -9 25 -5 5 3 10 1 10 -6 0 -6 8 -9 20
-6 11 3 17 1 14 -4 -10 -16 7 -51 22 -45 8 3 14 1 14 -4 0 -6 7 -10 15 -10 8
0 15 5 15 11 0 6 7 17 15 25 8 9 15 13 15 9 0 -3 9 3 21 14 12 11 18 24 14 30
-3 6 -1 11 4 11 16 0 13 50 -3 56 -11 4 -14 18 -11 52 7 79 -39 119 -146 126
-42 3 -55 0 -80 -21z"/>
<path d="M1580 769 c-41 -43 -76 -82 -77 -87 -1 -4 50 -59 113 -122 108 -108
115 -113 129 -94 8 10 15 40 15 67 l0 47 54 0 c49 0 71 10 76 33 2 9 -222 238
-230 235 -3 0 -39 -36 -80 -79z m193 -139 c-28 -3 -49 -10 -49 -17 -1 -7 -2
-32 -3 -55 l-1 -43 -67 67 -68 68 55 55 54 55 64 -62 63 -63 -48 -5z"/>
<path d="M1205 704 c-14 -13 -23 -29 -20 -34 3 -6 2 -10 -4 -10 -6 0 -17 -13
-26 -30 -9 -16 -14 -30 -11 -30 2 0 -8 -14 -22 -30 -15 -17 -28 -26 -30 -20
-7 20 -83 53 -95 41 -6 -6 -8 -11 -4 -11 4 0 -2 -9 -13 -20 -30 -30 -25 -47
23 -76 23 -15 44 -28 46 -30 2 -2 -11 -28 -28 -59 -17 -30 -28 -55 -24 -55 4
0 -2 -6 -12 -14 -10 -7 -20 -28 -21 -45 -2 -26 2 -32 24 -38 16 -4 27 -2 30 5
2 7 8 9 13 6 6 -3 16 0 24 6 12 10 16 9 22 -6 9 -24 35 -44 47 -36 6 3 24 7
41 9 16 2 32 8 33 13 2 6 8 7 14 4 6 -4 5 -9 -3 -14 -10 -7 -10 -11 0 -24 15
-18 61 -22 61 -5 0 5 5 7 10 4 6 -4 17 -1 25 5 12 10 16 9 22 -6 11 -29 31
-46 45 -37 7 4 18 8 23 8 37 2 95 18 95 26 0 6 4 8 9 4 19 -11 61 18 61 42 0
12 -4 23 -9 23 -5 0 -7 9 -4 20 3 12 0 20 -6 20 -7 0 -10 4 -7 8 3 5 -1 30 -8
57 -13 53 -40 80 -56 55 -7 -11 -11 -9 -19 13 -6 16 -11 35 -11 43 0 8 -5 14
-11 14 -5 0 -8 4 -5 8 2 4 -4 13 -15 20 -11 7 -19 8 -19 2 0 -23 -21 -8 -26
20 -4 17 -10 30 -14 30 -4 0 -7 7 -6 16 1 21 -35 44 -41 26 -7 -17 -23 -4 -23
19 0 10 -4 19 -10 19 -5 0 -7 7 -3 16 3 9 -3 23 -15 34 -20 19 -21 19 -47 -6z
m44 -124 c10 -8 9 -40 0 -40 -12 0 -40 -56 -32 -64 4 -3 1 -6 -5 -6 -6 0 -29
-34 -52 -75 -36 -65 -45 -75 -76 -81 -18 -3 -34 -10 -34 -14 0 -5 -9 -6 -20
-3 -17 5 -18 7 -7 17 18 14 100 157 100 174 0 6 4 12 8 12 12 0 40 56 32 64
-4 3 -1 6 5 6 13 0 47 60 35 60 -5 0 -1 5 7 10 12 8 17 3 24 -23 6 -17 12 -34
15 -37z m71 -61 c0 -10 4 -19 9 -19 4 0 6 -12 4 -27 -2 -16 -5 -34 -5 -40 -1
-7 -5 -13 -9 -13 -4 0 -22 -26 -39 -57 -35 -61 -54 -85 -63 -77 -3 4 -12 2
-19 -2 -14 -9 -48 -13 -48 -6 0 3 19 37 41 76 23 39 42 77 42 84 0 6 4 12 8
12 5 0 15 14 24 30 9 17 13 30 10 30 -3 0 3 8 13 18 20 22 32 19 32 -9z"/>
<path d="M377 494 c-4 -4 -22 -9 -39 -11 -18 -2 -35 -8 -36 -13 -2 -6 -8 -8
-13 -4 -5 3 -15 2 -21 -3 -7 -4 -17 -8 -23 -8 -37 -2 -95 -18 -95 -26 0 -6 -4
-8 -9 -4 -19 11 -61 -18 -61 -42 0 -12 4 -23 9 -23 5 0 8 -6 8 -12 -3 -25 15
-98 23 -98 4 0 6 -9 3 -20 -3 -11 -1 -20 5 -20 5 0 9 -6 9 -12 -3 -34 16 -98
29 -98 8 0 14 -5 14 -11 0 -5 5 -7 12 -3 7 4 26 9 43 11 16 2 32 8 33 13 2 6
9 10 16 10 7 0 12 17 12 41 1 22 7 46 13 52 9 8 11 9 9 1 -2 -7 7 -26 20 -43
16 -23 31 -31 52 -31 17 0 30 5 30 11 0 5 4 8 9 4 19 -11 61 18 61 42 0 12 -5
23 -11 23 -5 0 -8 4 -4 9 7 12 -16 101 -26 101 -4 0 -5 9 -2 20 3 11 1 20 -5
20 -5 0 -9 6 -9 13 3 31 -16 97 -28 97 -7 0 -15 5 -17 11 -2 5 -7 7 -11 3z
m-52 -115 c-9 -13 41 -59 65 -59 11 0 20 -7 20 -15 0 -8 4 -15 9 -15 5 0 7 -9
4 -20 -3 -12 0 -20 6 -20 7 0 9 -4 6 -10 -3 -5 -1 -19 5 -30 8 -16 8 -18 -4
-14 -8 3 -17 1 -20 -4 -9 -15 -45 -2 -51 19 -3 10 -19 32 -35 49 -25 27 -32
30 -50 20 -12 -6 -19 -17 -17 -25 8 -18 -12 -98 -26 -107 -23 -15 -47 -9 -47
12 0 11 -3 20 -7 20 -5 0 -9 14 -9 31 -1 17 -7 35 -15 40 -11 7 -11 9 3 9 23
0 52 45 45 70 -6 23 21 42 68 47 17 2 32 8 33 13 2 6 8 8 13 4 5 -3 7 -10 4
-15z"/>
<path d="M2466 473 c-3 -4 -21 -8 -38 -10 -18 -2 -34 -8 -36 -13 -2 -5 -9 -7
-17 -4 -7 3 -16 0 -20 -5 -3 -6 -11 -9 -16 -6 -5 4 -14 3 -21 -1 -7 -4 -26 -9
-43 -11 -16 -2 -32 -8 -33 -13 -2 -6 -8 -8 -13 -4 -5 3 -15 2 -21 -3 -7 -4
-17 -8 -23 -8 -37 -2 -95 -18 -95 -26 0 -6 -4 -7 -10 -4 -5 3 -16 3 -22 -2 -7
-4 -17 -8 -23 -8 -35 -2 -95 -18 -95 -26 0 -4 -6 -6 -14 -3 -8 3 -17 1 -20 -5
-4 -6 -13 -8 -20 -5 -15 6 -59 -44 -50 -57 3 -5 1 -9 -5 -9 -15 0 -50 -73 -47
-96 3 -19 105 -86 118 -77 5 2 8 0 8 -5 0 -4 15 -7 33 -6 17 1 32 2 32 3 0 1
16 4 35 7 19 2 36 9 38 14 2 5 9 7 17 4 7 -3 16 0 20 5 3 6 11 9 16 6 5 -4 14
-3 21 1 7 4 26 9 43 11 16 2 32 8 33 13 2 6 8 8 13 4 5 -3 15 -2 22 3 6 4 17
8 22 8 37 2 95 18 95 26 0 6 5 7 10 4 6 -3 16 -3 23 2 6 4 17 8 22 8 35 2 95
18 95 26 0 4 6 6 14 3 8 -3 17 -1 20 5 4 6 12 8 19 5 7 -2 21 4 31 15 14 15
16 29 11 60 -4 23 -10 41 -15 41 -4 0 -6 9 -3 20 3 11 1 20 -3 20 -5 0 -10 14
-11 32 -1 17 -9 39 -18 47 -15 15 -68 24 -79 14z m-93 -161 c10 -15 -1 -35
-14 -27 -5 4 -14 3 -21 -1 -7 -4 -26 -9 -43 -11 -16 -2 -32 -8 -33 -13 -2 -6
-8 -8 -13 -4 -5 3 -15 2 -21 -3 -7 -4 -17 -8 -23 -8 -37 -2 -95 -18 -95 -26 0
-6 -4 -7 -10 -4 -5 3 -16 3 -22 -2 -7 -4 -17 -8 -23 -8 -35 -2 -95 -18 -95
-26 0 -4 -7 -6 -15 -2 -25 9 5 45 42 49 17 2 43 9 59 15 16 7 34 13 39 14 6 1
12 3 15 4 3 1 21 4 40 7 19 2 37 9 38 14 2 6 8 8 13 4 5 -3 15 -2 22 3 6 4 17
8 22 8 33 2 95 18 95 25 0 12 34 6 43 -8z"/>
<path d="M617 455 c-14 -10 -17 -20 -12 -36 10 -29 30 -50 41 -41 5 4 3 0 -3
-8 -13 -18 -11 -66 4 -81 17 -17 61 1 67 27 4 14 11 21 20 18 8 -3 17 -1 20 5
4 6 12 8 20 5 7 -3 18 7 25 23 8 17 9 29 3 31 -5 1 -8 12 -5 22 3 11 0 20 -6
20 -6 0 -10 6 -8 12 1 7 -8 14 -20 16 -13 2 -23 -1 -23 -7 0 -6 -6 -8 -14 -5
-8 3 -17 0 -21 -6 -6 -9 -9 -9 -15 -1 -11 18 -53 22 -73 6z"/>
<path d="M2810 360 c-6 -11 -8 -25 -5 -30 3 -6 1 -10 -6 -10 -6 0 -9 -8 -6
-20 3 -11 2 -20 -3 -20 -4 0 -10 -14 -14 -31 -6 -33 16 -63 41 -54 6 2 13 0
15 -4 5 -14 68 -24 68 -12 0 6 11 11 24 11 31 0 37 19 21 66 -7 22 -9 40 -4
42 13 5 11 31 -3 46 -11 10 -91 36 -112 36 -3 0 -10 -9 -16 -20z"/>
</g>
</svg>
