<?xml version="1.0" standalone="no"?>
<!DOCTYPE svg PUBLIC "-//W3C//DTD SVG 20010904//EN"
 "http://www.w3.org/TR/2001/REC-SVG-20010904/DTD/svg10.dtd">
<svg version="1.0" xmlns="http://www.w3.org/2000/svg"
 width="862.000000pt" height="714.000000pt" viewBox="0 0 862.000000 714.000000"
 preserveAspectRatio="xMidYMid meet">
<metadata>
Created by potrace 1.15, written by Peter Selinger 2001-2017
</metadata>
<g transform="translate(0.000000,714.000000) scale(0.100000,-0.100000)"
fill="#FFFFFF" stroke="none">
<path d="M70 7092 c0 -57 20 -89 66 -108 50 -21 1009 -21 1059 0 46 20 67 55
63 108 -3 43 -3 43 -45 46 -47 3 -47 4 -34 -31 7 -18 6 -30 -4 -43 -13 -18
-39 -19 -497 -22 -381 -1 -488 1 -508 11 -25 13 -30 35 -15 70 6 15 1 17 -39
17 l-46 0 0 -48z"/>
<path d="M2410 7081 c0 -67 4 -71 80 -71 l49 0 3 -52 3 -53 40 -3 c85 -5 85
-5 85 -78 l0 -65 88 3 c79 3 87 5 87 23 0 17 -8 20 -55 23 -30 2 -58 9 -62 15
-4 7 -8 38 -8 70 l0 57 -60 0 -59 0 -3 58 -3 57 -62 3 -63 3 0 34 c0 32 -2 35
-30 35 -30 0 -30 0 -30 -59z"/>
<path d="M2636 7126 c3 -8 34 -24 69 -36 67 -22 75 -34 75 -110 0 -15 8 -38
18 -50 15 -18 24 -22 47 -16 l28 7 -7 94 c-3 52 -9 101 -12 110 -5 12 -26 15
-115 15 -90 0 -107 -2 -103 -14z"/>
<path d="M3763 7087 c-93 -47 -103 -54 -103 -79 0 -52 32 -46 220 46 l175 84
-95 1 c-95 0 -95 0 -197 -52z"/>
<path d="M4140 7123 c0 -31 13 -40 138 -99 132 -61 157 -64 157 -13 0 20 -16
32 -104 77 -78 39 -114 52 -147 52 -35 0 -44 -3 -44 -17z"/>
<path d="M5240 7064 c0 -82 10 -111 42 -123 19 -7 21 -15 19 -107 -5 -274 143
-465 402 -521 98 -21 284 -13 387 17 288 83 477 280 405 420 -15 29 -15 30 9
30 l24 0 -6 -110 c-5 -124 1 -140 53 -140 59 0 115 76 115 158 0 43 -30 108
-60 129 -15 11 -20 25 -20 59 0 39 5 50 35 78 34 32 35 35 35 110 l0 76 -40 0
-40 0 0 -65 0 -65 -65 0 -64 0 -10 38 c-5 20 -13 49 -17 65 l-6 27 -479 0
-478 0 -16 -52 c-8 -28 -15 -58 -15 -65 0 -11 -16 -13 -67 -11 l-68 3 -3 63
-3 62 -34 0 -35 0 0 -76z m1130 24 c6 -24 13 -51 16 -60 5 -17 -20 -18 -425
-18 -472 0 -441 -4 -420 61 6 19 12 40 15 47 3 9 92 12 403 12 l400 0 11 -42z
m174 -195 c-4 -21 -7 -39 -8 -40 -1 -1 -37 -2 -81 -3 -51 -1 -100 5 -135 16
-75 24 -296 24 -399 1 -131 -29 -251 -100 -251 -148 0 -66 97 -66 437 2 140
27 263 47 273 44 29 -9 60 -54 60 -85 0 -31 -38 -93 -78 -128 -129 -113 -321
-182 -504 -182 -221 0 -367 81 -446 248 -33 70 -37 86 -40 179 -3 57 -2 110 2
118 5 13 77 15 591 15 l586 0 -7 -37z"/>
<path d="M7498 7040 c-111 -20 -208 -66 -208 -99 0 -24 160 -302 178 -308 7
-3 38 2 68 12 47 15 61 15 97 5 95 -27 90 -31 183 130 46 80 84 153 84 163 0
60 -260 123 -402 97z m259 -90 l62 -21 -63 -107 c-59 -103 -63 -107 -91 -102
-44 7 -106 6 -141 -2 -29 -6 -32 -4 -62 50 -17 31 -45 80 -62 109 l-30 52 63
20 c34 11 73 22 87 25 49 9 176 -4 237 -24z"/>
<path d="M3957 6618 c-13 -10 -23 -61 -44 -237 l-28 -225 -22 119 c-13 65 -28
122 -35 127 -34 21 -48 7 -95 -87 l-48 -95 -57 0 -58 0 0 -40 0 -40 78 0 c42
0 82 4 88 8 6 4 20 25 31 47 l21 39 5 -29 c4 -17 18 -93 33 -170 15 -77 31
-146 37 -152 13 -17 56 -17 63 0 2 7 17 109 32 226 l27 213 23 -137 c12 -76
25 -141 28 -146 3 -5 18 -9 33 -9 25 0 31 7 56 63 l27 62 32 -85 c30 -80 33
-85 61 -85 27 0 34 7 70 77 l40 78 78 0 77 0 0 40 0 40 -103 0 -102 0 -24 -45
c-28 -53 -30 -52 -67 57 -37 111 -76 116 -114 17 l-17 -41 -32 198 c-31 188
-42 224 -71 224 -3 0 -14 -6 -23 -12z"/>
<path d="M1564 6585 c-142 -31 -254 -95 -357 -205 -72 -76 -136 -193 -162
-295 -20 -77 -20 -253 0 -330 47 -186 190 -363 356 -444 242 -117 511 -89 726
73 112 85 202 222 240 366 23 87 22 253 -1 340 -52 195 -182 353 -361 440
-135 65 -300 86 -441 55z m290 -81 c66 -17 173 -69 221 -108 l30 -25 -55 -56
-55 -55 -80 40 c-90 46 -173 63 -255 54 -67 -8 -146 -36 -196 -70 l-37 -25
-58 57 -59 58 28 23 c38 32 158 91 217 108 70 19 224 18 299 -1z m-508 -337
c-70 -92 -95 -252 -58 -373 12 -38 35 -89 52 -114 l30 -45 -58 -58 -57 -58
-27 33 c-43 52 -97 169 -113 244 -19 89 -19 147 0 240 20 93 43 147 96 225
l41 61 61 -60 60 -60 -27 -35z m864 82 c140 -217 129 -509 -29 -699 l-20 -25
-56 55 -55 55 42 84 43 83 0 117 c0 111 -1 119 -32 181 -18 36 -38 73 -45 82
-11 15 -5 25 42 73 30 30 58 55 62 55 5 0 26 -27 48 -61z m-352 -5 c108 -53
182 -152 205 -275 8 -47 7 -70 -6 -125 -29 -117 -99 -202 -207 -253 -46 -22
-69 -26 -145 -26 -79 0 -97 4 -149 29 -73 36 -136 97 -172 168 -39 75 -45 198
-15 280 40 104 123 184 229 219 80 27 184 20 260 -17z m-330 -724 c125 -60
290 -47 415 33 l49 30 56 -56 c64 -64 64 -66 -27 -121 -210 -128 -459 -118
-670 27 l-43 29 58 59 58 58 34 -21 c18 -11 50 -28 70 -38z"/>
<path d="M7535 6584 c-122 -62 -79 -244 58 -244 78 0 129 50 129 125 0 103
-98 165 -187 119z"/>
<path d="M7017 6486 c-7 -17 10 -150 24 -196 28 -86 74 -157 148 -230 80 -79
120 -106 144 -97 14 5 176 275 184 307 3 10 -9 27 -31 44 -41 31 -63 69 -80
135 l-11 46 -186 3 c-153 2 -188 0 -192 -12z m332 -100 c7 -25 28 -63 48 -85
l34 -41 -56 -100 c-32 -55 -61 -103 -66 -106 -14 -8 -99 76 -141 140 -38 60
-78 167 -78 212 l0 24 123 0 123 0 13 -44z"/>
<path d="M7786 6484 c-3 -8 -6 -28 -6 -42 0 -35 -33 -89 -78 -129 l-37 -32 33
-62 c67 -126 144 -251 159 -256 24 -9 64 18 144 97 112 111 176 257 167 385
l-3 50 -186 3 c-164 2 -187 0 -193 -14z m314 -81 c-1 -44 -44 -155 -85 -217
-33 -50 -118 -136 -134 -136 -3 0 -32 48 -64 105 l-59 105 31 35 c16 19 38 57
48 85 l18 50 122 0 123 0 0 -27z"/>
<path d="M0 6035 l0 -35 290 0 290 0 0 -199 c0 -192 1 -200 20 -206 46 -15 50
4 50 220 0 190 -1 204 -21 229 l-20 26 -305 0 -304 0 0 -35z"/>
<path d="M8572 6054 c-22 -15 -22 -19 -22 -233 0 -185 2 -220 15 -225 8 -3 22
-3 30 0 13 5 15 35 15 179 0 94 3 200 6 234 7 67 -1 76 -44 45z"/>
<path d="M6165 5996 c-134 -42 -224 -133 -261 -261 -19 -67 -15 -200 10 -315
10 -46 11 -69 3 -78 -8 -10 -15 -6 -31 20 -11 18 -21 34 -22 36 -3 5 -164 -89
-170 -99 -7 -12 189 -349 203 -349 6 0 48 21 92 47 l80 46 -20 39 c-17 33 -17
39 -5 44 8 3 23 1 32 -4 15 -8 18 -25 18 -100 1 -83 3 -94 31 -134 55 -79 161
-115 256 -87 106 32 179 160 150 264 -12 43 -2 65 31 65 26 0 32 -23 14 -59
-9 -16 -16 -32 -16 -34 0 -6 160 -97 170 -97 8 0 200 326 203 344 1 5 -36 31
-82 58 -87 50 -102 51 -116 7 -7 -21 -13 -23 -33 -11 -10 7 -10 21 3 73 25
106 31 264 11 330 -33 117 -128 213 -245 249 -74 23 -241 27 -306 6z m322 -86
c120 -59 179 -160 176 -300 -3 -160 -52 -306 -134 -403 l-42 -48 -26 25 c-78
75 -224 75 -302 0 l-26 -25 -32 36 c-80 92 -114 175 -136 330 -17 121 -10 180
32 257 30 56 75 98 134 129 59 30 113 39 209 34 68 -4 96 -10 147 -35z m-583
-715 c36 -63 66 -118 66 -123 0 -13 -52 -34 -60 -25 -23 27 -130 228 -122 231
5 1 18 9 28 17 10 8 20 15 20 15 1 0 31 -52 68 -115z m918 86 l26 -13 -67
-116 c-37 -64 -72 -117 -77 -119 -5 -1 -19 5 -31 15 l-22 17 67 117 c37 65 69
117 72 115 3 -1 17 -9 32 -16z m-551 -133 c-14 -40 4 -68 47 -68 30 0 51 43
34 71 -17 26 1 25 46 -3 l35 -21 -34 -11 c-61 -20 -46 -92 17 -84 21 2 30 10
34 28 5 22 7 23 13 7 9 -25 8 -77 -3 -102 -9 -20 -9 -20 -9 1 -2 41 -45 58
-75 28 -31 -30 -15 -75 27 -77 30 -2 20 -20 -24 -43 -38 -19 -39 -18 -26 15
14 37 -3 61 -45 61 -21 0 -31 -6 -37 -22 -9 -25 -4 -49 13 -60 20 -14 -14 -9
-43 6 -32 17 -66 54 -41 44 8 -3 25 -2 38 3 26 10 31 59 6 79 -22 19 -67 1
-74 -30 -6 -24 -7 -24 -14 8 -4 19 -5 50 -1 70 8 37 8 37 17 11 17 -50 88 -42
88 9 0 35 -22 56 -51 49 -20 -5 -20 -5 -2 15 16 18 47 36 65 37 4 1 4 -9 -1
-21z"/>
<path d="M6084 5799 c-41 -12 -91 -69 -100 -113 -3 -19 -1 -97 5 -173 14 -160
31 -203 96 -240 37 -21 52 -23 218 -23 159 0 182 2 217 20 70 36 89 77 106
240 9 78 13 157 9 176 -8 46 -58 101 -103 114 -45 12 -405 12 -448 -1z m460
-84 c30 -28 33 -59 15 -213 -21 -177 -40 -192 -254 -192 -221 0 -237 14 -251
220 -10 145 -9 149 27 183 l29 27 204 0 c202 0 203 0 230 -25z"/>
<path d="M105 5873 c-62 -33 -61 -67 6 -144 l50 -58 -63 -3 c-61 -3 -63 -4
-66 -31 l-3 -28 118 3 c112 3 118 4 121 24 2 12 -13 47 -33 79 -20 31 -35 58
-33 60 2 2 18 -3 35 -11 26 -13 34 -25 44 -67 20 -89 18 -87 120 -87 88 0 90
1 87 23 -3 20 -9 22 -64 25 l-61 3 -5 75 c-6 83 -25 115 -85 140 -43 19 -131
17 -168 -3z"/>
<path d="M417 5832 c-23 -25 -22 -85 1 -105 25 -23 85 -22 105 1 23 25 22 85
-1 105 -25 23 -85 22 -105 -1z"/>
<path d="M2923 5605 c-101 -123 -143 -182 -143 -200 0 -24 2 -25 71 -25 53 0
70 -3 67 -12 -3 -7 -20 -57 -38 -111 -29 -90 -31 -100 -17 -115 12 -11 22 -13
35 -6 11 5 83 87 161 182 169 205 172 215 69 220 -38 2 -68 7 -68 12 0 5 14
45 30 90 17 45 30 95 30 111 0 25 -4 29 -27 29 -24 0 -49 -26 -170 -175z"/>
<path d="M3587 5503 c-4 -3 -7 -289 -7 -635 l0 -629 25 -24 24 -25 800 0 799
0 26 31 26 31 0 617 c0 467 -3 620 -12 629 -9 9 -210 12 -843 12 -458 0 -835
-3 -838 -7z m1613 -173 l0 -110 -775 0 -775 0 0 110 0 110 775 0 775 0 0 -110z
m0 -613 c0 -323 -3 -436 -12 -445 -9 -9 -191 -12 -759 -12 -666 0 -749 2 -763
16 -14 14 -16 68 -16 445 l0 429 775 0 775 0 0 -433z"/>
<path d="M4272 4758 c-142 -267 -162 -305 -162 -312 0 -2 7 -12 16 -20 13 -14
55 -16 303 -16 295 0 311 2 311 39 0 9 -64 135 -143 281 -126 235 -145 265
-168 268 -25 3 -34 -10 -157 -240z m266 -80 l100 -188 -210 0 c-115 0 -208 4
-206 9 17 46 204 379 209 373 4 -4 52 -91 107 -194z"/>
<path d="M414 5089 c-16 -5 -41 -20 -55 -35 -20 -22 -24 -36 -24 -90 l-1 -64
-66 -67 -66 -66 -48 17 c-27 9 -72 19 -101 23 l-53 6 0 -32 c0 -28 3 -31 29
-31 16 0 59 -9 96 -21 90 -27 165 -99 189 -179 22 -73 20 -102 -9 -160 -14
-27 -25 -63 -25 -80 0 -28 -2 -30 -40 -30 -63 0 -84 -30 -105 -152 -8 -51 -35
-52 -35 -2 0 33 -2 35 -27 32 -23 -2 -29 -8 -31 -35 -2 -25 -8 -33 -23 -33
-14 0 -19 -7 -19 -25 0 -25 1 -25 85 -25 76 0 85 2 96 21 10 20 15 18 84 -51
l74 -73 -6 -47 c-10 -84 40 -140 126 -140 31 0 49 7 76 31 19 17 35 37 35 45
0 7 13 20 29 29 49 25 71 62 71 117 0 44 -4 54 -35 85 -33 33 -38 35 -95 31
l-59 -3 -75 74 -75 74 6 51 c4 28 16 66 27 86 27 44 28 156 2 214 l-17 40 68
68 c64 64 69 67 104 62 53 -9 107 12 130 50 39 63 14 159 -48 185 -16 7 -34
24 -40 40 -19 50 -88 78 -149 60z m83 -75 c19 -19 24 -32 20 -53 -5 -25 -4
-27 26 -23 61 7 95 -71 47 -110 -29 -23 -51 -23 -82 1 l-25 20 -83 -84 -84
-85 -28 27 -28 27 80 81 c44 44 80 85 80 91 0 7 -7 17 -15 24 -24 20 -18 66
11 89 35 27 49 26 81 -5z m-14 -1014 c5 0 15 7 23 15 32 31 91 12 106 -35 14
-40 -45 -90 -86 -74 -13 5 -15 1 -10 -24 8 -38 -23 -72 -65 -72 -50 0 -81 69
-46 104 8 8 15 18 15 23 0 5 -49 57 -109 117 -102 102 -109 111 -100 135 6 14
16 29 22 33 8 5 55 -35 127 -107 63 -63 119 -115 123 -115z"/>
<path d="M8123 5089 c-32 -9 -73 -51 -73 -74 0 -7 -14 -18 -31 -25 -94 -40
-90 -198 6 -230 20 -7 54 -10 74 -6 35 5 40 2 104 -62 l68 -68 -17 -40 c-26
-58 -25 -170 2 -214 11 -20 23 -58 27 -86 l6 -51 -75 -74 -75 -74 -59 3 c-57
4 -62 2 -95 -31 -31 -31 -35 -41 -35 -85 0 -55 22 -92 71 -117 16 -9 29 -22
29 -29 0 -8 16 -28 35 -45 27 -24 45 -31 76 -31 86 0 136 56 126 140 l-6 47
74 73 c69 69 74 71 84 51 11 -19 20 -21 96 -21 84 0 85 0 85 25 0 18 -5 25
-19 25 -15 0 -21 8 -23 33 -2 27 -8 33 -30 35 -26 3 -28 1 -28 -32 0 -50 -27
-49 -35 2 -21 122 -42 152 -105 152 -38 0 -40 2 -40 30 0 17 -11 53 -25 80
-29 58 -31 87 -9 160 24 80 99 152 189 179 37 12 80 21 96 21 26 0 29 3 29 31
l0 32 -53 -6 c-29 -4 -74 -14 -101 -23 l-48 -17 -68 68 -68 68 4 51 c3 31 0
60 -8 75 -28 52 -95 78 -155 60z m81 -70 c29 -23 35 -69 11 -89 -8 -7 -15 -17
-15 -24 0 -6 36 -47 80 -91 l80 -81 -28 -27 -28 -27 -84 85 -83 84 -25 -20
c-31 -24 -53 -24 -82 -1 -48 39 -14 117 47 110 30 -4 31 -2 26 23 -4 21 1 34
20 53 32 31 46 32 81 5z m204 -828 c10 -27 4 -34 -99 -137 -60 -60 -109 -112
-109 -117 0 -5 7 -15 15 -23 20 -20 19 -63 -2 -86 -39 -44 -121 -4 -109 54 5
25 3 29 -10 24 -41 -16 -100 34 -86 74 15 47 74 66 106 35 8 -8 18 -15 23 -15
5 0 60 51 122 114 64 64 120 112 127 109 7 -2 17 -17 22 -32z"/>
<path d="M1403 4768 c-12 -13 -35 -47 -53 -76 -17 -29 -41 -57 -51 -63 -25
-13 -109 -143 -109 -169 0 -11 -20 -51 -45 -89 -65 -101 -61 -133 22 -185 78
-48 105 -36 173 72 18 30 43 60 56 68 26 18 104 142 104 167 0 9 20 49 46 88
36 57 44 78 42 107 -3 32 -10 41 -53 69 -59 39 -103 43 -132 11z m-12 -228
l59 -41 -22 -40 c-13 -21 -32 -50 -43 -64 l-20 -25 -63 40 c-58 38 -61 42 -51
63 18 33 69 107 75 107 3 0 32 -18 65 -40z"/>
<path d="M2318 4690 c-9 -6 -47 -63 -84 -127 l-68 -117 28 -20 c188 -137 286
-295 321 -513 l7 -43 -51 0 c-46 0 -51 2 -51 23 0 80 -63 231 -132 314 -41 50
-151 143 -169 143 -4 0 -38 -50 -74 -111 l-65 -111 53 -52 c54 -52 91 -115
103 -174 l7 -32 -95 0 c-52 0 -98 3 -101 7 -6 5 7 30 50 99 13 20 11 24 -21
44 -20 12 -40 19 -45 16 -5 -3 -23 -31 -40 -61 -40 -70 -42 -125 -6 -160 24
-24 28 -25 185 -25 l160 0 0 53 c0 97 -46 210 -109 271 l-29 28 20 34 c28 48
36 50 69 18 85 -82 148 -225 149 -336 l0 -68 141 0 142 0 -7 89 c-16 211 -100
388 -251 530 -36 33 -65 63 -65 66 0 15 82 146 88 140 17 -16 429 -731 425
-737 -2 -5 -29 -8 -59 -8 l-54 0 0 -40 0 -40 75 0 c67 0 79 3 100 25 18 18 25
35 25 65 0 35 -31 94 -216 413 -119 205 -225 380 -236 390 -22 19 -92 23 -120
7z"/>
<path d="M5876 4345 c-134 -190 -151 -225 -109 -225 23 0 286 372 281 397 -9
48 -38 18 -172 -172z"/>
<path d="M87 4509 c-9 -5 -24 -24 -33 -41 -22 -43 -11 -90 28 -123 27 -23 39
-26 72 -22 55 8 86 44 86 101 0 60 -36 96 -94 96 -22 0 -49 -5 -59 -11z"/>
<path d="M6056 4341 c-123 -175 -140 -211 -97 -211 20 1 261 341 261 370 0 13
-7 20 -19 20 -13 0 -57 -54 -145 -179z"/>
<path d="M8406 4494 c-20 -21 -26 -37 -26 -70 0 -57 31 -93 86 -101 78 -10
136 75 100 145 -20 39 -44 52 -94 52 -29 0 -46 -7 -66 -26z"/>
<path d="M6604 4340 c-52 -34 -55 -50 -52 -348 l3 -274 56 -31 57 -32 60 43
c33 23 64 42 69 42 6 0 15 -11 21 -24 9 -20 20 -25 64 -28 44 -4 56 -1 71 16
22 24 31 14 47 -49 30 -118 28 -115 65 -115 19 0 36 4 39 8 3 5 15 68 28 140
12 73 26 132 31 132 5 0 22 -9 38 -21 16 -11 37 -19 47 -17 15 3 17 24 20 246
2 202 0 247 -13 272 -30 57 -47 60 -347 60 -256 0 -275 -2 -304 -20z m586 -60
c19 -19 20 -33 20 -215 l0 -195 -32 20 c-18 11 -41 20 -50 20 -20 0 -21 -5
-46 -145 -15 -81 -20 -95 -26 -72 -4 16 -19 47 -34 69 -18 27 -25 51 -23 73 2
23 -3 34 -15 39 -24 9 -38 -9 -59 -71 -12 -38 -22 -53 -35 -53 -25 0 -44 51
-36 95 5 27 2 45 -15 75 -37 66 -98 46 -64 -20 30 -58 21 -81 -50 -128 -63
-41 -66 -42 -90 -26 l-25 16 0 246 c0 239 1 246 22 269 21 23 23 23 280 23
245 0 259 -1 278 -20z"/>
<path d="M5642 4010 c-46 -28 -76 -98 -67 -157 18 -122 169 -174 259 -90 75
71 66 194 -17 246 -46 28 -130 29 -175 1z m152 -51 c74 -59 31 -184 -64 -184
-73 0 -123 75 -95 141 26 63 106 85 159 43z"/>
<path d="M7173 3723 c-4 -10 -16 -67 -28 -128 l-20 -110 -50 -3 -51 -3 -28 86
c-15 48 -34 89 -42 92 -9 3 -27 -6 -43 -21 -35 -33 -64 -34 -79 -1 -19 41 -37
40 -106 -10 l-66 -47 -30 22 c-16 12 -40 20 -53 18 l-22 -3 0 -243 0 -244 37
-34 38 -34 275 0 c225 0 281 3 305 15 60 31 60 33 60 345 l0 285 -31 18 c-17
9 -37 17 -45 17 -8 0 -18 -8 -21 -17z m-350 -251 c26 -3 27 -1 27 37 l0 41 43
0 44 0 18 -60 c21 -68 18 -66 132 -73 46 -3 76 0 82 7 5 6 16 45 24 86 l15 75
1 -212 c1 -201 0 -214 -19 -233 -19 -19 -33 -20 -279 -20 l-260 0 -20 26 c-19
25 -21 40 -21 205 0 164 5 201 25 169 12 -19 42 -10 96 29 l54 39 5 -57 c5
-52 7 -56 33 -59z"/>
<path d="M6874 3330 c-59 -24 -72 -104 -25 -151 71 -70 182 2 150 98 -16 51
-73 74 -125 53z"/>
<path d="M3875 3706 c-77 -19 -138 -54 -194 -110 -90 -93 -131 -217 -111 -341
5 -33 10 -61 10 -62 0 -2 -15 -3 -32 -3 -18 0 -55 -11 -83 -24 -192 -90 -195
-362 -6 -458 l55 -28 452 0 c439 0 455 1 511 21 70 27 145 95 181 164 34 67
42 189 17 264 -36 109 -139 199 -256 222 -56 11 -57 12 -63 51 -23 141 -165
279 -317 308 -65 12 -100 12 -164 -4z m226 -88 c93 -43 170 -139 193 -240 5
-21 3 -28 -9 -28 -8 0 -33 -7 -55 -16 -31 -13 -40 -21 -40 -40 0 -34 21 -39
77 -20 132 45 267 -13 330 -142 67 -136 9 -293 -136 -364 -46 -23 -49 -23
-486 -23 -426 0 -441 1 -479 21 -22 11 -54 37 -70 58 -28 35 -31 44 -31 111 0
67 3 76 31 112 49 60 88 78 166 76 81 -2 86 5 57 90 -59 175 40 362 226 424
59 19 161 11 226 -19z"/>
<path d="M3847 2994 c-4 -4 -7 -16 -7 -26 0 -16 9 -18 90 -18 l90 0 0 -39 c0
-53 27 -85 73 -85 21 0 45 8 57 19 18 16 20 28 18 84 l-3 66 -156 3 c-85 1
-158 -1 -162 -4z"/>
<path d="M538 3414 c-20 -19 -7 -53 27 -73 51 -30 65 -71 65 -194 0 -88 -3
-106 -18 -120 -24 -22 -24 -22 -68 8 -20 14 -51 25 -69 25 -18 0 -49 -11 -69
-25 -20 -14 -39 -25 -41 -25 -2 0 -21 11 -41 25 -41 28 -76 32 -94 10 -14 -17
-4 -55 15 -55 8 0 31 -11 51 -25 23 -16 51 -25 75 -25 25 0 47 8 67 25 17 14
33 25 37 25 3 0 21 -11 39 -25 22 -17 46 -25 71 -25 25 0 49 8 71 25 18 14 36
25 39 25 4 0 20 -11 37 -25 40 -34 93 -33 143 1 l37 25 37 -25 c48 -34 95 -34
144 0 l38 26 38 -26 c42 -29 82 -34 101 -11 17 20 6 43 -25 55 -14 5 -38 19
-54 31 -37 28 -101 22 -138 -12 -22 -22 -26 -22 -51 -8 -24 13 -28 22 -33 79
-12 141 -70 235 -177 287 -47 23 -72 28 -152 31 -52 2 -98 1 -102 -4z m235
-102 c60 -32 101 -90 122 -168 18 -72 19 -84 1 -84 -7 0 -31 -12 -52 -26 -30
-21 -41 -24 -54 -15 -8 7 -32 19 -52 29 l-38 17 0 105 c-1 61 -6 121 -14 142
l-14 38 27 -6 c14 -4 48 -18 74 -32z"/>
<path d="M5530 3275 c-85 -79 -106 -93 -110 -78 -8 29 -23 49 -47 62 -34 17
-59 13 -92 -15 -58 -48 -28 -144 45 -144 19 0 34 -3 34 -7 0 -3 -14 -36 -30
-72 -27 -58 -37 -70 -83 -95 -70 -39 -87 -55 -87 -82 0 -41 34 -49 88 -21 96
50 111 62 138 109 l28 47 39 -32 c102 -83 114 -90 194 -101 l78 -11 30 -85 30
-85 40 0 c36 0 40 3 43 28 3 27 -10 76 -50 185 -16 43 -27 56 -60 73 l-41 21
41 40 40 41 101 -20 c78 -16 106 -18 123 -9 28 14 36 67 13 86 -14 12 -217 59
-258 60 -10 0 -45 -25 -77 -56 l-59 -56 -50 43 -49 44 80 81 c68 69 79 85 76
110 -2 24 -8 30 -33 32 -26 2 -45 -11 -135 -93z"/>
<path d="M2530 3256 c-47 -25 -139 -74 -204 -109 -106 -57 -123 -63 -154 -56
-42 9 -62 3 -62 -21 0 -23 141 -288 158 -294 22 -9 41 5 52 40 10 31 28 42
198 131 205 107 258 147 268 198 8 46 -11 99 -47 130 -48 40 -105 35 -209 -19z
m155 -22 c8 -4 23 -20 31 -37 15 -28 15 -32 -3 -56 -19 -25 -192 -125 -201
-116 -3 2 9 20 27 40 22 25 31 46 31 70 0 48 18 83 49 94 32 12 45 13 66 5z
m-179 -85 c3 -6 -9 -26 -27 -45 -28 -29 -34 -42 -33 -78 l1 -43 -81 -43 c-45
-24 -83 -47 -86 -51 -3 -4 -21 24 -41 62 -21 39 -31 69 -24 69 6 0 70 31 141
69 71 39 132 70 136 70 4 1 10 -4 14 -10z"/>
<path d="M7735 3182 c-41 -26 -61 -51 -80 -96 -21 -49 -14 -88 26 -150 l30
-48 -22 -24 -23 -24 28 -29 28 -29 -18 -49 c-13 -33 -19 -73 -18 -128 0 -69 5
-91 31 -147 39 -84 97 -142 181 -181 59 -28 77 -32 152 -31 154 1 267 70 332
202 30 61 33 74 33 162 0 82 -4 103 -27 152 -80 171 -270 256 -448 199 l-65
-20 -27 26 -28 27 -23 -22 c-13 -12 -27 -22 -33 -22 -13 1 -42 43 -49 71 -8
33 28 87 69 104 42 18 81 6 186 -55 89 -52 141 -70 199 -70 63 1 118 28 170
85 l44 48 -24 18 c-32 25 -35 24 -71 -17 -75 -85 -136 -85 -288 2 -93 52 -111
59 -170 62 -51 2 -72 -1 -95 -16z m454 -307 c59 -32 100 -75 133 -138 33 -60
33 -194 0 -254 -72 -137 -218 -201 -357 -158 -70 23 -146 88 -183 159 -38 74
-37 179 1 255 l28 54 -21 22 -20 21 28 27 28 27 21 -22 c21 -20 23 -21 48 -4
84 55 204 59 294 11z"/>
<path d="M2090 2833 c-83 -140 -79 -243 9 -243 51 0 91 46 91 105 0 25 -5 55
-11 66 -5 11 -13 39 -17 62 -10 58 -41 63 -72 10z"/>
<path d="M442 2828 c-18 -18 -15 -48 6 -55 9 -4 31 -17 48 -30 42 -31 94 -30
132 2 l30 25 30 -25 c39 -33 87 -33 132 0 l33 24 29 -24 c38 -32 90 -33 132
-2 17 13 39 26 49 30 20 7 23 37 5 55 -19 19 -54 14 -86 -13 l-30 -25 -38 25
c-47 32 -84 32 -122 0 -17 -14 -33 -25 -37 -25 -4 0 -20 11 -37 25 -38 32 -75
32 -122 0 l-38 -25 -30 25 c-32 27 -67 32 -86 13z"/>
<path d="M2293 2724 c-18 -8 -16 -51 3 -58 9 -3 83 -6 166 -6 169 0 201 -9
245 -67 18 -23 33 -33 47 -31 55 8 5 97 -78 141 -36 18 -60 21 -206 24 -91 1
-171 0 -177 -3z"/>
<path d="M5450 2600 c0 -19 7 -20 255 -20 248 0 255 1 255 20 0 19 -7 20 -255
20 -248 0 -255 -1 -255 -20z"/>
<path d="M2000 2500 c-29 -29 -27 -93 3 -117 12 -10 23 -31 24 -47 3 -36 27
-63 64 -71 22 -5 29 -12 29 -30 0 -12 9 -33 19 -46 19 -24 19 -24 253 -24 263
0 284 4 348 66 32 31 40 46 38 67 -5 41 -35 40 -70 -2 -53 -65 -71 -69 -289
-74 -137 -3 -203 -1 -218 7 -39 21 -11 31 89 31 110 0 130 4 130 29 0 36 -20
41 -177 41 -129 0 -153 2 -153 15 0 13 24 15 154 15 124 0 156 3 166 15 7 8
10 21 7 30 -5 12 -38 15 -189 17 -155 3 -183 5 -183 18 0 13 29 16 185 20
l185 5 0 25 0 25 -197 3 c-187 2 -199 1 -218 -18z"/>
<path d="M707 2312 c-15 -16 -17 -48 -17 -235 0 -212 0 -216 22 -231 19 -14
76 -16 419 -16 l398 0 21 27 c20 26 21 36 18 236 -3 193 -4 210 -22 223 -16
12 -91 14 -421 14 -377 0 -403 -1 -418 -18z m793 -232 l0 -190 -375 0 -375 0
0 190 0 190 375 0 375 0 0 -190z"/>
<path d="M886 2125 c-75 -84 -74 -109 2 -113 44 -3 52 -6 52 -23 0 -14 7 -19
25 -19 18 0 25 5 25 19 0 10 7 21 15 25 8 3 15 15 15 26 0 11 -7 20 -15 20
-12 0 -15 14 -15 65 0 62 -1 65 -24 65 -17 0 -40 -19 -80 -65z"/>
<path d="M1056 2159 c-52 -61 -28 -169 43 -190 49 -15 89 3 112 49 15 28 17
30 22 12 4 -17 13 -20 56 -20 44 0 51 -3 51 -20 0 -15 7 -20 25 -20 17 0 25 5
25 18 0 9 9 23 20 30 21 13 17 42 -6 42 -11 0 -14 16 -14 65 0 62 -1 65 -24
65 -17 0 -40 -19 -79 -64 l-55 -65 -6 40 c-9 58 -44 89 -100 89 -37 0 -48 -5
-70 -31z"/>
<path d="M17 2239 c-15 -9 -17 -27 -16 -157 l1 -147 16 58 c9 31 19 57 22 57
4 0 20 -47 35 -106 32 -119 29 -129 -35 -129 -39 0 -40 -1 -40 -33 l0 -34 65
4 c64 4 64 4 71 -25 9 -42 -21 -68 -85 -75 -51 -5 -51 -5 -51 -40 l0 -35 60 6
c34 3 71 12 83 20 23 15 23 14 47 -76 l23 -91 -32 -26 c-36 -31 -92 -50 -145
-50 -35 0 -36 -1 -36 -36 l0 -37 67 7 c87 9 139 33 186 84 41 47 43 56 22 125
-8 26 -12 47 -9 47 3 0 44 -25 91 -56 73 -47 84 -57 72 -69 -8 -7 -92 -63
-188 -124 -133 -85 -181 -111 -207 -111 -32 0 -34 -2 -34 -36 l0 -36 53 4 c47
4 73 17 237 122 102 65 193 127 202 138 20 22 23 69 9 97 -6 10 -68 55 -139
100 -72 45 -132 90 -135 99 -127 476 -159 573 -186 572 -3 0 -14 -5 -24 -11z"/>
<path d="M6615 2185 l-17 -65 -43 0 c-24 0 -79 -5 -122 -10 -63 -9 -82 -16
-100 -36 -34 -38 -30 -58 10 -50 74 13 218 28 223 23 3 -2 -11 -69 -30 -148
-27 -110 -41 -149 -60 -168 -14 -14 -28 -22 -32 -18 -4 3 5 56 20 118 25 103
26 112 11 135 -8 13 -24 24 -34 24 -20 0 -63 -31 -98 -70 -19 -21 -22 -22 -23
-7 0 20 -42 42 -63 34 -9 -3 -19 -35 -27 -89 -14 -91 -33 -131 -86 -177 -52
-47 -92 -65 -110 -50 -22 18 -16 45 14 58 122 55 177 156 117 216 -32 33 -63
31 -121 -7 -37 -25 -57 -48 -79 -93 -22 -44 -35 -59 -47 -57 -14 3 -18 -4 -18
-31 0 -20 6 -37 13 -40 8 -3 20 -26 27 -51 29 -104 119 -113 228 -21 25 21 32
23 39 11 10 -18 59 -31 66 -19 4 5 11 41 17 79 11 70 41 134 79 168 l21 19
-16 -54 c-20 -65 -22 -136 -5 -166 16 -31 77 -31 115 -2 25 20 28 20 45 5 10
-9 31 -16 48 -16 43 0 99 66 149 175 21 47 42 85 47 85 13 0 7 -30 -18 -90
-29 -68 -32 -131 -9 -154 20 -20 73 -21 101 -1 20 14 23 14 34 -6 9 -19 17
-21 60 -17 42 4 49 3 44 -11 -11 -37 -25 -127 -25 -165 0 -52 16 -76 55 -79
l30 -2 7 90 c9 111 35 217 88 347 22 55 40 111 40 124 0 25 -35 67 -51 62 -5
-2 -29 -52 -53 -112 -42 -103 -95 -181 -109 -159 -3 5 10 55 29 112 19 56 34
109 34 117 0 18 -46 48 -64 41 -8 -3 -29 -51 -47 -107 -30 -95 -77 -180 -99
-180 -15 0 -13 10 15 85 17 43 25 83 23 109 -3 36 -8 44 -40 61 -28 15 -38 27
-40 49 -4 42 -29 54 -63 32 -26 -17 -27 -21 -21 -75 6 -50 3 -63 -28 -126 -19
-38 -41 -79 -50 -90 -15 -19 -15 -19 -16 12 0 36 21 134 51 237 l20 68 127 -3
c121 -4 127 -3 130 16 5 43 -11 50 -127 53 l-109 4 10 35 c12 43 -10 83 -46
83 -20 0 -25 -9 -41 -65z"/>
<path d="M4565 2183 c-16 -2 -90 -15 -163 -29 -166 -30 -207 -30 -407 1 -218
34 -490 31 -627 -5 -36 -10 -38 -13 -38 -51 0 -30 6 -46 24 -63 19 -17 29 -45
45 -119 34 -168 88 -256 183 -297 101 -43 303 -12 416 64 59 39 86 89 117 212
14 53 30 103 36 111 14 16 60 17 82 1 9 -7 35 -67 58 -133 47 -138 72 -176
137 -209 144 -73 330 -83 445 -25 49 25 79 88 107 220 11 52 22 104 25 116 3
12 14 24 24 28 22 7 41 53 41 101 0 30 -3 34 -32 38 -18 3 -94 14 -169 25
-126 19 -230 24 -304 14z m198 -75 c68 -15 104 -48 123 -116 43 -147 3 -287
-93 -328 -91 -39 -304 8 -385 84 -36 34 -68 120 -75 204 -6 66 -5 68 26 97 73
68 247 94 404 59z m-848 1 c70 -13 130 -41 145 -68 16 -32 12 -114 -11 -187
-38 -123 -144 -194 -301 -202 -108 -5 -134 4 -193 70 -80 90 -106 234 -60 332
17 36 42 49 115 60 57 8 250 5 305 -5z"/>
<path d="M3760 2092 c0 -4 7 -18 16 -30 9 -13 14 -25 12 -28 -3 -2 -44 8 -92
22 -88 25 -156 29 -163 8 -2 -7 47 -26 119 -46 l123 -35 -137 -43 c-76 -24
-138 -48 -138 -54 1 -38 16 -38 157 8 77 25 143 46 146 46 4 0 -22 -58 -58
-130 -36 -71 -65 -132 -65 -135 0 -3 11 -5 25 -5 22 0 32 15 83 117 65 129 60
129 83 -4 12 -72 25 -88 47 -60 7 8 4 41 -8 107 -10 52 -17 96 -16 97 0 1 28
-18 60 -42 32 -25 63 -42 67 -39 20 12 7 44 -28 73 l-38 30 48 1 c39 0 47 3
47 19 0 23 -19 31 -78 31 l-47 1 33 28 c17 15 32 30 32 33 0 3 -12 9 -26 12
-19 5 -33 2 -48 -11 -52 -46 -51 -46 -80 -3 -19 29 -33 40 -51 40 -14 0 -25
-3 -25 -8z"/>
<path d="M8551 1960 c-35 -129 -68 -248 -72 -265 -7 -24 -33 -45 -135 -110
-163 -103 -188 -136 -149 -192 15 -22 358 -247 401 -263 23 -9 24 -8 24 28 l0
37 -180 115 c-99 63 -180 120 -180 125 0 6 41 36 90 67 98 63 99 62 69 -20
-15 -41 -10 -61 29 -104 40 -45 101 -77 145 -78 23 0 27 4 27 30 0 24 -6 33
-27 40 -100 37 -109 54 -81 159 17 66 25 81 37 76 9 -4 28 -9 44 -12 25 -5 27
-3 27 30 0 26 -5 37 -19 42 -31 9 -42 30 -35 64 6 28 10 32 30 27 22 -6 24 -3
24 27 0 18 -5 38 -11 44 -9 9 -9 23 0 55 7 26 11 95 9 178 l-3 134 -64 -234z"/>
<path d="M5868 2130 c-44 -13 -122 -75 -166 -133 -77 -99 -106 -195 -79 -260
14 -31 28 -42 104 -79 104 -51 116 -70 89 -141 -18 -47 -84 -130 -118 -148
-51 -27 -40 51 18 126 19 25 32 50 29 55 -4 6 -23 10 -44 10 -109 0 -176 -226
-80 -275 71 -37 199 48 264 174 23 46 31 142 15 181 -13 32 -68 69 -131 89
-79 25 -87 73 -26 170 39 61 134 161 154 161 36 0 0 -126 -54 -189 -41 -48
-38 -71 8 -71 93 0 182 244 112 310 -23 22 -60 30 -95 20z"/>
<path d="M6430 1559 c-199 -24 -406 -80 -460 -125 -20 -17 -30 -35 -30 -54 0
-53 19 -54 121 -5 185 88 362 125 637 132 197 6 216 10 175 44 -20 17 -325 22
-443 8z"/>
<path d="M1640 1533 c-8 -3 -34 -19 -57 -34 -29 -21 -54 -29 -83 -29 -83 0
-80 9 -80 -253 0 -168 3 -236 12 -245 7 -7 35 -12 64 -12 38 0 53 -4 58 -16 3
-9 6 -88 6 -176 l0 -160 34 -34 c38 -38 85 -45 135 -20 43 23 51 54 51 201 l0
135 208 0 c188 0 210 2 239 20 33 20 59 82 48 112 -4 9 4 19 20 26 15 7 33 28
41 49 21 48 5 104 -36 135 -20 15 -28 28 -25 39 9 26 -20 85 -49 104 -21 14
-26 25 -26 56 0 29 -8 47 -29 71 l-29 33 -244 2 c-133 1 -250 -1 -258 -4z
m461 -83 c22 -12 25 -35 7 -47 -7 -4 -44 -10 -83 -13 -64 -5 -70 -7 -73 -29
-2 -13 1 -28 8 -35 6 -6 58 -13 118 -16 94 -4 107 -7 110 -24 6 -28 -15 -36
-103 -36 -96 0 -123 -17 -95 -60 7 -12 38 -16 137 -20 115 -4 128 -7 131 -24
6 -30 -16 -36 -138 -36 -113 0 -140 -7 -140 -34 1 -33 21 -41 112 -46 81 -4
93 -7 96 -24 2 -10 -2 -22 -10 -27 -7 -5 -112 -9 -233 -9 -158 0 -224 -3 -233
-12 -8 -8 -12 -61 -12 -170 0 -132 -3 -160 -15 -164 -8 -4 -22 -1 -30 6 -12
10 -15 43 -15 171 0 101 -4 167 -12 184 -14 32 -56 55 -98 55 l-30 0 0 169 0
169 33 6 c18 3 58 22 88 41 l54 34 203 1 c122 0 211 -4 223 -10z"/>
<path d="M2886 1279 c-23 -33 -20 -58 13 -123 l29 -58 -23 -41 c-34 -62 -40
-103 -20 -134 15 -23 22 -25 66 -21 29 3 64 15 86 30 l38 25 38 -25 c22 -15
57 -27 86 -30 44 -4 51 -2 66 21 20 31 14 72 -20 135 l-24 42 24 43 c34 62 40
103 20 134 -15 23 -22 25 -66 21 -29 -3 -64 -15 -86 -30 l-38 -25 -38 25 c-22
15 -57 27 -86 30 -42 4 -50 1 -65 -19z m243 -145 c12 -15 21 -32 21 -39 0 -13
-64 -75 -77 -75 -15 0 -73 65 -73 81 0 9 16 31 35 48 40 35 57 32 94 -15z"/>
<path d="M7811 966 c-31 -34 -51 -64 -51 -78 0 -22 -1 -21 -18 7 -31 50 -47
58 -102 52 -39 -5 -54 -2 -74 14 l-26 20 0 -26 c0 -39 17 -63 55 -80 19 -7 35
-21 35 -29 0 -27 -19 -28 -43 -2 -28 30 -47 19 -47 -28 0 -38 7 -48 48 -71 38
-23 42 -45 7 -45 -34 0 -31 -16 10 -57 41 -41 42 -46 15 -73 -15 -15 -33 -20
-72 -20 -77 0 -98 -8 -98 -36 0 -24 1 -24 108 -24 l108 0 18 32 19 32 9 -24
c5 -14 6 -71 2 -127 l-7 -103 26 0 c28 0 28 1 47 120 5 36 10 92 10 125 0 43
7 75 25 114 l25 54 23 -21 c24 -23 67 -28 140 -16 30 6 37 11 37 30 0 23 -2
23 -58 18 -57 -6 -59 -6 -87 27 l-28 34 34 5 c23 3 38 13 49 33 22 39 -2 81
-49 85 -41 4 -68 -19 -74 -62 -3 -28 -4 -28 -5 8 -2 31 5 47 39 87 40 48 46
79 16 79 -8 0 -37 -24 -66 -54z"/>
<path d="M4050 944 c-69 -63 -102 -154 -65 -184 19 -16 53 -4 60 23 4 12 11
35 17 50 11 29 11 29 28 -26 9 -30 48 -100 88 -158 41 -59 77 -124 83 -150 32
-123 -79 -259 -211 -259 -94 0 -187 76 -210 169 -13 57 -6 80 45 141 21 25 43
57 50 73 l11 27 24 -42 c24 -43 32 -124 17 -180 -8 -30 15 -61 41 -56 28 5 42
50 42 134 0 98 -28 163 -97 224 -71 62 -117 51 -107 -24 6 -38 2 -46 -38 -96
-62 -77 -71 -97 -70 -160 1 -111 61 -208 156 -255 182 -89 390 13 426 208 18
92 0 151 -76 264 -89 131 -105 166 -112 242 -7 62 -9 66 -34 69 -19 2 -38 -7
-68 -34z"/>
<path d="M591 913 c-23 -22 -497 -844 -518 -900 -4 -9 8 -13 38 -13 l44 0 238
425 c131 233 245 430 254 436 10 9 19 10 31 3 9 -6 124 -203 256 -437 l240
-427 43 0 c35 0 41 3 36 17 -22 57 -490 873 -514 896 -23 21 -39 27 -74 27
-35 0 -51 -6 -74 -27z"/>
<path d="M5260 820 c-19 -19 -20 -33 -20 -420 l0 -400 35 0 35 0 2 383 3 382
643 3 642 2 0 -385 0 -385 40 0 40 0 0 394 c0 383 -1 394 -21 420 l-20 26
-680 0 c-666 0 -679 0 -699 -20z"/>
<path d="M5386 714 c-20 -19 -23 -153 -4 -172 9 -9 149 -12 569 -12 307 0 564
3 573 6 13 5 16 23 16 88 0 50 -5 87 -12 94 -9 9 -149 12 -569 12 -494 0 -559
-2 -573 -16z m1084 -84 c0 -20 -7 -20 -510 -20 -503 0 -510 0 -510 20 0 20 7
20 510 20 503 0 510 0 510 -20z"/>
<path d="M632 478 c-17 -17 -17 -229 0 -246 7 -7 21 -12 33 -12 39 0 45 18 45
135 0 117 -6 135 -45 135 -12 0 -26 -5 -33 -12z"/>
<path d="M5550 480 c-45 -11 -105 -75 -114 -123 -4 -20 -2 -55 4 -78 38 -141
240 -158 300 -26 25 54 25 91 -1 143 -33 68 -110 102 -189 84z m101 -99 c37
-38 38 -79 3 -115 -55 -55 -144 -15 -144 64 0 30 53 80 85 80 16 0 38 -12 56
-29z"/>
<path d="M6267 476 c-72 -27 -107 -78 -107 -159 0 -49 27 -97 73 -131 40 -29
134 -29 174 0 99 74 99 217 -2 275 -44 25 -94 31 -138 15z m94 -76 c28 -15 51
-65 43 -95 -14 -55 -85 -82 -132 -49 -83 58 -1 192 89 144z"/>
<path d="M5828 439 c-15 -8 -18 -25 -18 -107 0 -63 4 -102 12 -110 13 -13 232
-18 262 -6 13 5 16 25 16 114 0 89 -3 109 -16 114 -26 10 -238 6 -256 -5z"/>
<path d="M2780 367 c-30 -18 -76 -46 -102 -61 l-47 -27 6 34 c4 27 0 40 -16
56 -44 44 -121 13 -121 -48 0 -36 44 -75 77 -68 13 2 23 2 23 0 0 -2 -19 -28
-41 -58 -32 -43 -46 -54 -63 -50 -11 2 -41 6 -66 7 -42 3 -45 1 -48 -25 -4
-32 1 -34 93 -46 69 -9 70 -8 100 20 l30 30 10 -63 10 -63 110 -2 c96 -2 106
0 77 10 l-32 12 46 28 47 28 79 -32 c89 -37 113 -33 113 17 0 26 -8 33 -85 71
-47 23 -94 42 -104 42 -10 1 -41 -13 -68 -30 -28 -16 -51 -29 -53 -27 -5 6
-23 123 -19 129 2 4 37 26 79 50 65 37 75 46 75 71 0 24 -4 28 -27 28 -16 0
-53 -15 -83 -33z"/>
<path d="M3664 226 c-14 -36 3 -52 116 -108 121 -60 150 -67 170 -43 25 30 1
52 -120 109 -123 58 -157 66 -166 42z"/>
<path d="M4130 122 l-244 -117 88 -3 89 -3 183 87 c185 88 210 107 184 139 -7
8 -22 15 -34 14 -11 0 -131 -53 -266 -117z"/>
<path d="M5503 58 c-6 -7 -14 -23 -17 -35 l-7 -23 480 0 481 0 -13 32 -13 33
-451 3 c-353 2 -453 -1 -460 -10z"/>
</g>
</svg>
